<?xml version="1.0" standalone="no"?>
<!DOCTYPE svg PUBLIC "-//W3C//DTD SVG 1.1//EN" "http://www.w3.org/Graphics/SVG/1.1/DTD/svg11.dtd" >
<svg xmlns="http://www.w3.org/2000/svg" xmlns:xlink="http://www.w3.org/1999/xlink" version="1.1">
<metadata>
Created by FontForge 20170731 at Sat May  4 13:42:35 1929
 By Aleksey,,,
Cambridge Fontworks
</metadata>
<defs>
<font id="Clarendon-Light-DTC" horiz-adv-x="278" >
  <font-face 
    font-family="S.O.S. 1"
    font-weight="5"
    font-stretch="normal"
    units-per-em="1000"
    panose-1="0 0 0 0 0 0 0 0 0 0"
    ascent="800"
    descent="-200"
    x-height="467"
    cap-height="667"
    bbox="-187 -207 1080 888.032"
    underline-thickness="50"
    underline-position="-155"
    unicode-range="U+0020-F002"
  />
<missing-glyph horiz-adv-x="500" 
d="M31 0v811h438v-811h-438zM438 31v749h-376v-749h376z" />
    <glyph glyph-name=".notdef" horiz-adv-x="500" 
d="M31 0v811h438v-811h-438zM438 31v749h-376v-749h376z" />
    <glyph glyph-name=".null" horiz-adv-x="0" 
 />
    <glyph glyph-name="nonmarkingreturn" 
 />
    <glyph glyph-name="space" unicode=" " 
 />
    <glyph glyph-name="exclam" unicode="!" horiz-adv-x="267" 
d="M180 95q20 -18 20 -47q0 -27 -19.5 -46t-47.5 -19q-27 0 -46.5 19t-19.5 46t19.5 47t46.5 20q26 1 47 -20zM111 162l-39 387l-3 29l-1 10q0 26 18.5 45.5t46.5 19.5q30 0 48.5 -19t18.5 -48l-1 -17l-2 -25l-41 -382h-45z" />
    <glyph glyph-name="quotedbl" unicode="&#x22;" horiz-adv-x="372" 
d="M68 399l-18 268h109l-19 -268h-72zM230 399l-17 268h108l-18 -268h-73z" />
    <glyph glyph-name="numbersign" unicode="#" horiz-adv-x="567" 
d="M525 196h-106l-31 -196h-101l31 196h-112l-31 -196h-100l31 196h-107l14 89h107l17 110h-107l14 89h106l29 183h100l-29 -183h113l28 183h101l-29 -183h105l-13 -89h-105l-17 -110h106zM237 395l-17 -110h112l17 110h-112z" />
    <glyph glyph-name="dollar" unicode="$" horiz-adv-x="567" 
d="M252 688h52v-37q40 0 74 -11.5t62 -32.5q54 -39 54 -95q0 -30 -19 -52.5t-47 -22.5q-24 0 -42 15q-8 8 -12 17t-4 23q0 24 11.5 38t33.5 18q-12 18 -42 30q-15 6 -32 9.5t-37 3.5v-219l4 -3l5 -1l8 -3l8 -2q70 -21 127.5 -57t57.5 -124q0 -96 -60.5 -138.5t-149.5 -53.5
v-61h-52v61l-27 3l-27 3q-54 9 -100.5 40t-46.5 96q0 39 19.5 64t50.5 25q27 0 43.5 -17t16.5 -45q0 -23 -14 -40t-34 -17l-8 1l-10 3q15 -27 42.5 -39t59.5 -17q12 0 18 -2h17v229l-8 1l-8 3q-69 18 -125.5 53t-56.5 119q0 89 52 141q27 27 62.5 41.5t83.5 14.5v38zM391 87
q29 27 29 74q0 39 -27 63t-89 39v-214q60 9 87 38zM170 554q-26 -24 -26 -72q0 -44 30 -65q29 -18 68 -31l4 -2q5 -1 6 -2v208q-55 -9 -82 -36z" />
    <glyph glyph-name="percent" unicode="%" horiz-adv-x="719" 
d="M638 288q33 -45 33 -125l-1 -18l-1 -17q-5 -52 -32.5 -95t-87.5 -43q-57 0 -91 44q-32 46 -32 127q0 82 33 127.5t90 45.5q55 1 89 -46zM505 266q-13 -29 -13 -90q0 -82 12.5 -115t44.5 -33q31 0 45 30.5t14 97.5q0 75 -14 106q-12 32 -45 32q-29 1 -44 -28zM601 661
l-403 -661h-55l398 661h60zM258 630q33 -45 33 -126l-1 -18l-1 -17q-6 -51 -33.5 -95t-86.5 -44q-56 0 -91 45q-32 46 -32 128t33 127.5t90 45.5q55 1 89 -46zM125 608q-13 -29 -13 -91q0 -82 12.5 -114.5t44.5 -32.5q29 0 43.5 30.5t14.5 97.5q0 75 -13 105q-12 32 -45 32
q-29 1 -44 -27z" />
    <glyph glyph-name="ampersand" unicode="&#x26;" horiz-adv-x="735" 
d="M716 377v-53h-31q-18 0 -29 -4q-11 -2 -20.5 -12t-21.5 -31l-28 -54l-22 -39l-27 -42l-14 -20l-14 -18l30 -26q13 -7 32 -14l10 -3h11q35 0 55 27q18 27 24 61l3 24l1 22l59 1q0 -101 -40 -155t-114 -54q-16 0 -25 2q-14 0 -24 5q-20 6 -42.5 18.5t-47.5 31.5
q-37 -28 -82 -44q-46 -13 -95 -13q-105 0 -168 51t-63 136q0 79 48.5 122t114.5 73q-19 36 -30 66q-9 30 -9 60q0 63 41 101t108 38q59 0 96.5 -33.5t37.5 -88.5q0 -57 -39 -95q-35 -34 -87 -59l74 -108l78 -105q32 47 46 79q11 27 14 58v4q0 18 -9.5 27.5t-26.5 9.5l-36 1
v53h262zM214 314l-10 -6q-36 -24 -52 -51.5t-16 -60.5q0 -64 42.5 -105.5t109.5 -41.5q20 0 37 3.5t35 12.5l18 9l18 11q-47 53 -91 115l-80 121zM328 436q16 16 25 29l11 24l4 25q0 29 -17 46q-15 18 -43 18q-25 0 -43 -19.5t-18 -48.5q0 -18 10 -45.5t30 -59.5
q22 15 41 31z" />
    <glyph glyph-name="quotesingle" unicode="'" horiz-adv-x="210" 
d="M69 399l-18 268h109l-19 -268h-72z" />
    <glyph glyph-name="parenleft" unicode="(" horiz-adv-x="357" 
d="M364 628q-96 -37 -129 -120q-16 -42 -26.5 -87t-10.5 -87v-17v-14q-2 -10 -2 -15v-45v-32l1 -32q0 -49 8 -97.5t23 -96.5q28 -91 136 -137v-55q-123 24 -200 144t-77 291q0 104 18.5 178.5t60.5 136.5q36 50 85 87t113 52v-54z" />
    <glyph glyph-name="parenright" unicode=")" horiz-adv-x="357" 
d="M-7 -152q96 36 129 118q17 43 27 86.5t10 86.5l1 46l1 47v38l-1 39q0 47 -8.5 93t-25.5 93q-30 89 -132 132l-1 56q123 -24 200 -145.5t77 -291.5l-1 -44v-26q-3 -12 -4 -18q-13 -123 -75 -230t-196 -135z" />
    <glyph glyph-name="asterisk" unicode="*" horiz-adv-x="451" 
d="M267 608l-8 -17q-1 -5 -2 -8t-2 -4l-9 -24l-3 -19l2 -5l6 -2q11 0 21 10l24 23l26 22q13 8 30 10q19 0 33.5 -16t14.5 -38q0 -21 -12.5 -33.5t-37.5 -12.5l-18 1l-18 3q-12 0 -18 2l-18 1l-16 -3q-4 -2 -5 -8q1 -5 2 -6l5 -6l18 -12l23 -13q19 -11 33 -25q15 -12 15 -33
q0 -17 -15 -32q-13 -11 -31 -16l-4 -1q-25 0 -37 18q-4 8 -7 13.5t-10 25.5l-3 12l-3 13l-1 5l-1 5l-4 12l-3 9l-4 5l-5 2q-7 -4 -9 -7l-8 -21l-1 -4l-1 -3l-3 -15l-3 -14q-5 -22 -16 -39q-9 -17 -33 -17h-5l-4 1q-17 3 -31 17t-14 31q0 19 15 34l33 25l16 9l15 9l13 10l4 8
q-4 6 -7.5 8.5t-13.5 2.5l-18 -1l-17 -3l-18 -3l-18 -1q-23 0 -38 12q-13 13 -13 35q0 23 14 38.5t34 15.5q17 0 30 -9.5t25 -22.5l6 -8l7 -6l16 -14q6 -3 18 -5l5 2l2 5q0 14 -5 25l-11 26l-12 27q-3 9 -5 28q0 18 14 32q16 13 37 13q23 0 37 -12.5t14 -32.5v-5l-1 -4
l-1 -6l-1 -4z" />
    <glyph glyph-name="plus" unicode="+" horiz-adv-x="567" 
d="M235 382v163h98v-163h167v-91h-167v-163h-98v163h-168v91h168z" />
    <glyph glyph-name="comma" unicode="," horiz-adv-x="267" 
d="M71 -94q41 8 61 32q11 11 17.5 27.5t6.5 35.5l-7 -4l-6 -5l-11 -3l-16 -1q-23 0 -40 16q-16 18 -16 42q0 29 19.5 48.5t46.5 19.5q38 0 60 -28t22 -75q0 -56 -37.5 -96.5t-99.5 -49.5v41z" />
    <glyph glyph-name="hyphen" unicode="-" horiz-adv-x="241" 
d="M231 319v-90h-221v90h221z" />
    <glyph glyph-name="period" unicode="." horiz-adv-x="267" 
d="M181 94q19 -19 19 -47q0 -27 -19 -46t-47 -19q-27 0 -46.5 19t-19.5 46t19 46.5t47 19.5q27 1 47 -19z" />
    <glyph glyph-name="slash" unicode="/" horiz-adv-x="330" 
d="M316 667l-279 -870h-83l278 870h84z" />
    <glyph glyph-name="zero" unicode="0" horiz-adv-x="567" 
d="M455 568q61 -85 61 -241q0 -163 -61.5 -251.5t-174.5 -88.5q-105 0 -167 89t-62 240q0 101 18 166.5t62 107.5q23 26 60 43q35 14 74 19l7 1h8q114 1 175 -85zM221 578q-21 -15 -34 -44l-5 -13l-4 -12q-5 -14 -8.5 -30.5t-3.5 -33.5l-2 -109q0 -29 0.5 -60t1.5 -64
q0 -20 1.5 -30t9.5 -40l1 -5l2 -5q12 -40 38 -63.5t60 -23.5q32 0 58.5 15t39.5 41l4 9l4 10q11 29 16 71l4 137v24v19v16v13q0 22 -1 39t-4 30q-4 41 -21 71q-15 30 -41.5 42t-58.5 12q-32 1 -57 -16z" />
    <glyph glyph-name="one" unicode="1" horiz-adv-x="567" 
d="M348 116q0 -39 12 -51.5t45 -12.5l72 1v-53h-362v53h75q31 0 43.5 13.5t12.5 48.5v352h-131v55q35 0 60.5 8.5t49.5 27.5q39 32 51 91l72 1v-534z" />
    <glyph glyph-name="two" unicode="2" horiz-adv-x="567" 
d="M518 220v-36v-14v-11q-2 -8 -2 -12q0 -52 -28 -106q-24 -48 -95 -48q-19 0 -32.5 2t-32.5 9l-60 24l-47 20q-12 5 -24.5 8.5t-20.5 5.5l-11 1l-11 1q-26 0 -35 -18q-6 -18 -6 -39v-4l-64 -3q0 101 23 155.5t92 101.5l24 15l28 16l95 53q37 18 57.5 50.5t20.5 69.5
q0 55 -39 88t-107 33q-50 0 -85 -23.5t-51 -68.5l16 8l12 4l6 1h7q26 0 42 -16.5t16 -42.5q0 -29 -21 -48.5t-52 -19.5q-34 0 -58.5 28.5t-24.5 70.5q0 73 63 126q32 26 69 39t83 13q106 0 171.5 -53t65.5 -139q0 -99 -63.5 -141.5t-140.5 -73.5l-71 -31q-34 -15 -62 -38
l-8 -6l-6 -6q-12 -12 -19 -26l-4.5 -13.5t-6.5 -23.5l13 11l13 8l19 7l23 2q25 0 51 -6l52 -13l50 -14q26 -6 52 -6q37 0 55 27t18 85l-1 17h52z" />
    <glyph glyph-name="three" unicode="3" horiz-adv-x="567" 
d="M208 369l11 -3h9h6q69 0 106.5 31.5t37.5 89.5q0 43 -39.5 73t-98.5 30q-37 0 -68 -11t-54 -34q29 0 48 -11q22 -11 22 -46q0 -26 -20.5 -45t-52.5 -19q-30 0 -49 23t-19 57q0 62 60.5 105.5t149.5 43.5q104 0 169 -45.5t65 -119.5q0 -50 -32 -85.5t-97 -57.5
q72 -16 107.5 -56.5t35.5 -106.5q0 -85 -71.5 -140t-182.5 -55q-55 0 -90.5 9.5t-67.5 33.5q-21 17 -35 38.5t-20 46.5l-3 11v12q0 42 21.5 67.5t57.5 25.5q29 0 48 -20.5t19 -49.5q0 -30 -18.5 -45t-56.5 -15q15 -27 46 -43q31 -14 77 -14q77 0 122 39t45 107
q0 57 -41.5 90t-113.5 33h-6h-4l-10 -2l-13 -2v60z" />
    <glyph glyph-name="four" unicode="4" horiz-adv-x="567" 
d="M506 257v-70h-92v-71q0 -37 12 -51q4 -4 15.5 -8.5t34.5 -4.5l30 1v-53h-303v53h57q29 0 42.5 15t13.5 47v72h-276v70l304 393h70v-393h92zM316 522l-204 -265h204v265z" />
    <glyph glyph-name="five" unicode="5" horiz-adv-x="567" 
d="M142 393q12 10 28.5 18.5t37.5 16.5q41 13 81 13q100 0 165.5 -60t65.5 -152q0 -107 -70.5 -174.5t-180.5 -67.5q-92 0 -150.5 41t-58.5 108q0 38 21 64t54 26q28 0 47.5 -18.5t19.5 -45.5q0 -31 -21.5 -46.5t-50.5 -15.5q15 -24 46.5 -39.5t71.5 -15.5q72 0 115.5 48.5
t43.5 131.5q0 69 -40.5 109t-110.5 40q-40 0 -66.5 -12.5t-49.5 -39.5l-60 1l27 327l26 -6l44 -11l55 -11q29 -4 39 -4.5t23 -0.5q55 0 93 6t74 21l11 5l12 6l16 -9q-39 -71 -98 -93q-28 -10 -62 -16t-72 -6l-57 1l-42 6l-7 1q-5 1 -6 2z" />
    <glyph glyph-name="six" unicode="6" horiz-adv-x="567" 
d="M237 397q37 16 74 16q95 0 152.5 -55.5t57.5 -146.5q0 -105 -59 -165.5t-160 -60.5q-117 0 -179.5 75.5t-62.5 217.5q0 180 69.5 276.5t195.5 96.5q81 0 132 -33t51 -86q0 -32 -21 -56q-22 -22 -54 -22q-26 0 -43 18t-17 44q0 25 11 37q6 8 13 11.5t18 3.5
q-13 12 -34 18.5t-49 6.5q-78 0 -111.5 -55.5t-44.5 -124.5l-4 -32l-1 -31q30 30 66 47zM204 305q-31 -42 -31 -112q0 -65 33 -107.5t88 -42.5q56 0 88 42.5t32 119.5q0 64 -33 102.5t-90 38.5q-54 1 -87 -41z" />
    <glyph glyph-name="seven" unicode="7" horiz-adv-x="567" 
d="M519 645l1 -16v-12v-4l-3 -40q0 -10 -2.5 -20t-5.5 -20t-6.5 -18.5t-13.5 -26.5t-33 -50l-71 -101l-5 -9l-5 -6q-47 -73 -65 -155q-8 -40 -12.5 -83t-4.5 -84h-105q0 86 15.5 166.5t70.5 151.5l37 43l43 48l20 23l20 24q23 28 40 53.5t25 50.5q-21 -22 -44.5 -33.5
t-53.5 -11.5q-23 0 -42 4l-40 11l-41 9q-19 4 -27.5 4.5t-13.5 0.5q-44 0 -67 -20t-23 -58v-72h-59v251h59v-54q17 27 42 43t55 16q33 0 60 -10q17 -6 35 -11q14 -6 20 -9l29 -12l29 -10l22 -6l24 -2q23 0 35 16q10 17 10 38z" />
    <glyph glyph-name="eight" unicode="8" horiz-adv-x="567" 
d="M483 280q34 -43 34 -100q0 -84 -65 -138.5t-168 -54.5q-108 0 -172 45t-64 124q0 55 27.5 94.5t94.5 73.5q-54 21 -81.5 57.5t-27.5 88.5q0 84 59.5 133.5t160.5 49.5q100 0 160 -41.5t60 -112.5q0 -56 -36.5 -91t-82.5 -58q67 -27 101 -70zM153 239q-26 -34 -26 -71
q0 -51 43.5 -84.5t113.5 -33.5q57 0 97.5 30.5t40.5 72.5q0 44 -36 71t-80 43l-43 15l-37 13q-45 -20 -73 -56zM358 395q13 9 17.5 13t6.5 7q16 14 26 33q8 19 8 40q0 49 -36 77.5t-100 28.5q-58 0 -93.5 -24.5t-35.5 -66.5q0 -33 31 -58q30 -22 69 -39l41 -17l34 -13z" />
    <glyph glyph-name="nine" unicode="9" horiz-adv-x="567" 
d="M368 264l-26 -16q-9 -5 -19 -9t-28.5 -8.5t-44.5 -4.5q-88 0 -146 57t-58 146q0 100 60 162t159 62q137 0 189.5 -88t52.5 -209q0 -183 -69 -276t-205 -93q-75 0 -125 33.5t-50 85.5q0 33 20 55.5t51 22.5t48.5 -17t17.5 -46q0 -21 -10 -34t-33 -17l4 -4l5 -3
q6 -4 10.5 -6t19.5 -8l40 -4q86 0 120.5 59.5t41.5 131.5l2 26l1 25zM185 552q-32 -43 -32 -116q0 -67 32.5 -105t89.5 -38q56 0 87.5 40.5t31.5 113.5q0 65 -33.5 106t-86.5 41q-55 1 -89 -42z" />
    <glyph glyph-name="colon" unicode=":" horiz-adv-x="267" 
d="M181 94q19 -19 19 -47q0 -27 -19 -46t-47 -19q-27 0 -46.5 19t-19.5 46t19 46.5t47 19.5q27 1 47 -19zM181 445q19 -19 19 -47q0 -27 -19.5 -46.5t-46.5 -19.5t-47 19q-19 21 -19 47q0 27 19 46.5t47 19.5q27 1 47 -19z" />
    <glyph glyph-name="semicolon" unicode=";" horiz-adv-x="267" 
d="M71 -94q41 8 61 32q11 11 17.5 27.5t6.5 35.5l-7 -4l-6 -5l-11 -3l-16 -1q-23 0 -40 16q-16 18 -16 42q0 29 19.5 48.5t46.5 19.5q38 0 60 -28t22 -75q0 -56 -37.5 -96.5t-99.5 -49.5v41zM175 444q19 -19 19 -46t-19 -46.5t-47 -19.5q-27 0 -46.5 19t-19.5 47
q0 27 19.5 46.5t46.5 19.5q26 1 47 -20z" />
    <glyph glyph-name="less" unicode="&#x3c;" horiz-adv-x="500" 
d="M466 487l-329 -155l329 -156v-97l-433 211v84l433 211v-98z" />
    <glyph glyph-name="equal" unicode="=" horiz-adv-x="567" 
d="M500 303v-86h-433v86h433zM500 465v-86h-433v86h433z" />
    <glyph glyph-name="greater" unicode="&#x3e;" horiz-adv-x="500" 
d="M33 177l329 155l-329 155v98l433 -212v-83l-433 -211v98z" />
    <glyph glyph-name="question" unicode="?" horiz-adv-x="557" 
d="M294 95q19 -19 19 -47q0 -27 -19 -46t-47 -19q-27 0 -46.5 19t-19.5 46t18.5 47t47.5 20q26 1 47 -20zM221 165q0 63 24 103t52 71l11 12l12 12q19 21 37 48q16 27 16 63q0 49 -40 82.5t-103 33.5q-55 0 -91 -27t-45 -77l22 9l18 3q26 0 43.5 -18.5t17.5 -44.5
q0 -30 -21 -51q-11 -10 -23 -15t-29 -5q-36 0 -63 30q-25 31 -25 74q0 82 59.5 133.5t156.5 51.5q106 0 170 -49t64 -131q0 -66 -33 -102q-29 -29 -72 -62q-36 -25 -66 -56t-38 -89z" />
    <glyph glyph-name="at" unicode="@" horiz-adv-x="733" 
d="M554 493l-39 -202l-6 -29l-1 -17q0 -19 8 -30q8 -8 24 -10q30 0 53 30q19 28 32 67l10 42l3 35q0 107 -70.5 172t-186.5 65q-115 0 -198.5 -83.5t-83.5 -199.5q0 -129 78.5 -207t209.5 -78q58 0 105 10q50 9 95 29l18 -62q-22 -10 -45.5 -16.5t-52 -11.5t-59.5 -8t-61 -3
q-155 0 -255.5 96t-100.5 251q0 142 102 244t246 102q143 0 232 -84.5t89 -220.5q0 -86 -51 -156.5t-116 -70.5q-28 0 -47.5 16.5t-25.5 44.5q-20 -29 -53.5 -48t-71.5 -19q-58 0 -101 44q-41 46 -41 109q0 87 51 149q25 29 57.5 45t70.5 16q35 0 60.5 -16t41.5 -48l10 53
h70zM432 408q-21 24 -54 24q-43 0 -74.5 -38.5t-31.5 -89.5q0 -41 22.5 -67t57.5 -26q42 0 71.5 39.5t29.5 97.5q0 36 -21 60z" />
    <glyph glyph-name="A" unicode="A" horiz-adv-x="757" 
d="M215 222l-8 -20l-9 -20l-7 -17l-6 -17l-10 -30l-3 -27q0 -18 12.5 -26.5t42.5 -8.5l53 1v-57h-296v57q48 0 71 6q21 7 37 37l10 22l12 27l207 518h105l227 -531l7 -16l7 -13q11 -21 25 -36t46 -15l36 1v-57h-325v57h57q11 0 20 0.5t17.5 4t10.5 17.5l-2 11l-8 20l-47 112
h-282zM349 569l-111 -286h234z" />
    <glyph glyph-name="B" unicode="B" horiz-adv-x="737" 
d="M654 301q43 -43 43 -111q0 -106 -76 -148q-40 -21 -79.5 -31.5t-85.5 -10.5h-8h-6h-409v57h38q40 0 53 10.5t13 47.5v436q0 35 -13 46.5t-53 11.5l-38 1v57h396q115 0 175 -43t60 -124q0 -57 -33 -96.5t-97 -51.5q78 -7 120 -51zM422 61q78 0 116 31.5t38 96.5
q0 55 -39.5 90.5t-101.5 35.5l-190 1v-255h177zM417 377q61 0 97 30t36 85q0 54 -34 83.5t-99 29.5l-172 1v-229h172z" />
    <glyph glyph-name="C" unicode="C" horiz-adv-x="722" 
d="M613 674h54v-268h-54q-10 90 -69 148t-141 58q-105 0 -168.5 -78.5t-63.5 -211.5q0 -118 61.5 -190.5t163.5 -72.5q85 0 145 54.5t78 148.5l67 1q-12 -129 -93 -204.5t-212 -75.5q-146 0 -238.5 93.5t-92.5 241.5q0 159 88.5 261.5t227.5 102.5q46 0 79.5 -7t60.5 -20
l37 -21l40 -28z" />
    <glyph glyph-name="D" unicode="D" horiz-adv-x="788" 
d="M33 667h398q138 0 222.5 -89t84.5 -234q0 -160 -84.5 -252t-230.5 -92h-390v57h38q40 0 53 10.5t13 47.5v436q0 35 -13 46.5t-53 11.5l-38 1v57zM403 61q105 0 159.5 71.5t54.5 211.5q0 127 -58 194t-167 67l-147 1v-545h158z" />
    <glyph glyph-name="E" unicode="E" horiz-adv-x="753" 
d="M251 375h97q41 0 61.5 20t20.5 62v45h58v-315h-58v35q0 50 -18.5 72.5t-61.5 22.5l-99 1v-257h189q132 0 160 53t28 170l61 1v-285h-656v57h44q40 0 53 10.5t13 47.5v436q0 35 -13 46.5t-53 11.5l-44 1v57h645v-249h-59q0 69 -24.5 128t-110.5 59l-233 1v-231z" />
    <glyph glyph-name="F" unicode="F" horiz-adv-x="671" 
d="M251 377h96q40 0 58.5 20.5t18.5 68.5v41h61v-323h-61v44q0 45 -18.5 66.5t-59.5 21.5l-95 1v-201q0 -37 13 -48.5t53 -11.5l44 1v-57h-328v57h44q40 0 53 10.5t13 47.5v436q0 35 -13 46.5t-53 11.5l-44 1v57h635v-256h-59l1 11v9v2q0 86 -40 129t-118 43l-201 1v-229z
" />
    <glyph glyph-name="G" unicode="G" horiz-adv-x="801" 
d="M614 677h56v-259h-56q-18 87 -72 138t-148 51q-102 0 -162.5 -78.5t-60.5 -211.5q0 -114 63.5 -185t167.5 -71q69 0 119 36.5t50 89.5v62q0 24 -12 33t-47 9l-54 1v56h323v-56h-55q-27 0 -37 -10t-10 -34v-242h-54l-27 77q-35 -50 -88 -75t-120 -25q-146 0 -243 93
t-97 237q0 167 90.5 268t242.5 101q62 0 111.5 -18t90.5 -58z" />
    <glyph glyph-name="H" unicode="H" horiz-adv-x="857" 
d="M252 319v-203q0 -37 13 -48.5t53 -11.5l44 1v-57h-328v57h44q40 0 53 10.5t13 47.5v436q0 35 -13 46.5t-53 11.5l-44 1v57h328v-57h-44q-38 0 -52 -11.5t-14 -48.5v-170h354v171q0 35 -13 46.5t-53 11.5l-44 1v57h328v-57h-44q-38 0 -52 -11.5t-14 -48.5v-434
q0 -37 13 -48.5t53 -11.5l44 1v-57h-328v57h44q40 0 53 10.5t13 47.5v204h-354z" />
    <glyph glyph-name="I" unicode="I" horiz-adv-x="395" 
d="M34 667h328v-57h-44q-38 0 -52 -11.5t-14 -48.5v-434q0 -37 13 -48.5t53 -11.5l44 1v-57h-328v57h44q40 0 53 10.5t13 47.5v436q0 35 -13 46.5t-53 11.5l-44 1v57z" />
    <glyph glyph-name="J" unicode="J" horiz-adv-x="498" 
d="M138 667h326v-56h-38q-39 0 -52.5 -12t-13.5 -49v-360q0 -59 -9.5 -91.5t-33.5 -59.5q-27 -28 -65 -42t-90 -14q-75 0 -126.5 40.5t-51.5 101.5q0 37 23.5 64t56.5 27q31 0 53.5 -20.5t22.5 -50.5q0 -23 -8.5 -34.5t-22.5 -21.5l-15 -9l-12 -6l-4 -3l-1 -4
q0 -12 20.5 -20.5t47.5 -8.5q71 0 89 46q8 23 13 49t5 53v6v7v352q0 35 -12.5 47t-53.5 12l-48 1v56z" />
    <glyph glyph-name="K" unicode="K" horiz-adv-x="781" 
d="M245 233v-117q0 -37 13 -48.5t53 -11.5l38 1v-57h-316v57h38q40 0 53 10.5t13 47.5v436q0 35 -13 46.5t-53 11.5l-38 1v57h316v-57h-38q-38 0 -52 -11.5t-14 -48.5v-236l223 199l37 34q17 14 24.5 24.5t9.5 21.5q0 8 -5.5 12t-20.5 4l-77 1v57h339v-57h-33
q-31 0 -49.5 -6t-39.5 -19l-25 -19l-28 -23l-138 -120l223 -307l24 -34l18 -17q6 -5 17 -8l25 -1l25 1v-57h-326v57h61q18 0 27 3t9 14q0 6 -4 14l-9 16l-4 6l-5 6l-8 11l-7 9l-152 213z" />
    <glyph glyph-name="L" unicode="L" horiz-adv-x="643" 
d="M646 283v-283h-613v57h44q40 0 53 10.5t13 47.5v436q0 35 -13 46.5t-53 11.5l-44 1v57h331v-57h-47q-38 0 -52 -11.5t-14 -48.5v-489h186q95 0 120 62q15 36 23 69.5t8 68.5v10l1 11z" />
    <glyph glyph-name="M" unicode="M" horiz-adv-x="982" 
d="M689 667h259v-57h-38q-38 0 -52 -11.5t-14 -48.5v-434q0 -37 13 -48.5t53 -11.5l38 1v-57h-316v57h38q40 0 53 10.5t13 47.5v477l-238 -592h-51l-241 592v-476q0 -37 12.5 -48.5t53.5 -11.5l38 1v-57h-277v57h38q40 0 53 10.5t13 47.5v436q0 35 -13 46.5t-53 11.5l-38 1
v57h264l196 -497z" />
    <glyph glyph-name="N" unicode="N" horiz-adv-x="823" 
d="M632 167v384q0 40 -14.5 49t-95.5 9v58h274v-57h-30q-38 0 -52 -11.5t-14 -48.5v-550h-81l-413 553v-437q0 -37 12.5 -48.5t53.5 -11.5l44 1v-57h-283v57h38q40 0 53 10.5t13 47.5v436q0 35 -13 46.5t-53 11.5l-38 1v57h228z" />
    <glyph glyph-name="O" unicode="O" horiz-adv-x="803" 
d="M513 668q53 -12 93 -39q66 -41 107 -121q20 -39 30 -79t10 -85q0 -168 -93.5 -264.5t-264.5 -96.5q-154 0 -249.5 95t-95.5 248q0 159 93.5 257.5t254.5 98.5h11q53 0 104 -14zM232 543q-29 -37 -45 -91t-16 -121q0 -77 14 -125.5t46 -86.5q29 -34 75 -56q46 -19 93 -19
q112 0 173 78t61 221q0 125 -64 201t-168 76q-106 1 -169 -77z" />
    <glyph glyph-name="P" unicode="P" horiz-adv-x="669" 
d="M251 116q0 -37 12.5 -48.5t52.5 -11.5l51 1v-57h-334v57h44q40 0 53 10.5t13 47.5v436q0 35 -13 46.5t-53 11.5l-44 1v57h411q96 0 160.5 -37t64.5 -148q0 -92 -51.5 -135.5t-167.5 -43.5l-199 1v-188zM414 365q71 0 104.5 30t33.5 91q0 58 -34 88.5t-105 30.5l-162 1
v-241h163z" />
    <glyph glyph-name="Q" unicode="Q" horiz-adv-x="810" 
d="M807 100v-20l-1 -19q0 -57 -24 -108.5t-102 -51.5q-43 0 -79 25.5t-64 76.5q-12 -4 -28.5 -7t-30.5 -6t-30.5 -5t-33.5 -2h-5h-5q-157 0 -255.5 92.5t-98.5 241.5q0 169 93 267t255 98q84 0 146 -23q64 -21 109 -67t72.5 -113t27.5 -140q0 -102 -33 -173t-106 -126
q18 -27 36.5 -39.5t42.5 -12.5q34 0 48 21q6 11 10 32t4 51v8h52zM439 132q-30 24 -65 24q-27 0 -48 -18q-19 -19 -19 -45v-6l1 -6l3 -10l7 -12l4 -2l5 -1l36 -10l42 -2h25q17 3 31.5 5t35.5 11q-26 46 -58 72zM615 205q17 59 17 130q0 131 -62.5 208t-170.5 77l-18 -1
q-11 0 -17 -2q-30 -6 -61.5 -20.5t-51.5 -34.5q-41 -41 -60.5 -99t-19.5 -146q0 -78 25.5 -139t70.5 -92l-3 11l-1 9v4v4q0 44 33 74t83 30q59 0 99.5 -27.5t75.5 -69.5l5 -7l6 -6q32 39 50 97z" />
    <glyph glyph-name="R" unicode="R" horiz-adv-x="764" 
d="M760 200v-74q0 -73 -29 -105t-92 -32q-80 0 -96 50q-6 22 -11.5 51t-8.5 62q0 28 -5.5 56.5t-15.5 57.5q-15 53 -99 53l-158 1v-204q0 -37 13 -48.5t53 -11.5l44 1v-57h-322v57h38q40 0 53 10.5t13 47.5v436q0 35 -13 46.5t-53 11.5l-38 1v57h452q52 0 83 -10
q30 -8 56 -29q20 -17 34.5 -45t18.5 -58v-11l1 -10q0 -68 -41.5 -111.5t-118.5 -52.5q72 -19 92 -63q9 -22 15 -50t6 -63q0 -60 9 -80.5t31 -20.5q18 0 26.5 15.5t8.5 46.5v75h54zM440 380q57 0 89 29.5t32 84.5t-31.5 83t-95.5 28l-189 1v-226h195z" />
    <glyph glyph-name="S" unicode="S" horiz-adv-x="663" 
d="M530 672h54v-248h-55q-16 90 -68 139t-151 49q-66 0 -112 -33.5t-46 -82.5q0 -39 28.5 -60t92.5 -30l18 -3l20 -2l39 -6l41 -6q85 -14 155 -51t70 -138q0 -94 -69 -155.5t-175 -61.5q-34 0 -60.5 3t-53.5 11q-49 13 -97 51l-13 10l-13 12l-25 -70h-54v266h61
q6 -65 26.5 -102t62.5 -67q30 -20 70 -34q17 -5 38 -8t41 -3q67 0 111 33t44 85q0 62 -58 81.5t-136 31.5l-17 2l-17 3q-87 12 -158 44t-71 134q0 97 66.5 156.5t175.5 59.5q51 0 91 -10q42 -9 80 -32l20 -13l21 -14z" />
    <glyph glyph-name="T" unicode="T" horiz-adv-x="633" 
d="M10 414v253h613v-253h-56q0 81 -21 135q-18 55 -117 55l-56 1v-489q0 -37 12.5 -48.5t53.5 -11.5l50 1v-57h-342v57h49q40 0 53 10.5t13 47.5v490h-52q-95 0 -119 -53q-10 -25 -17 -61t-7 -78z" />
    <glyph glyph-name="U" unicode="U" horiz-adv-x="776" 
d="M16 667h320v-56h-38q-39 0 -52.5 -12t-13.5 -49v-340q0 -77 48 -114.5t122 -37.5q100 0 142 49.5t42 144.5v299q0 35 -12.5 47t-53.5 12l-44 1v56h283v-56h-38q-41 0 -53.5 -12t-12.5 -49v-340q0 -122 -78 -174.5t-190 -52.5q-117 0 -192 52.5t-75 179.5v336
q0 35 -12.5 47t-53.5 12l-38 1v56z" />
    <glyph glyph-name="V" unicode="V" horiz-adv-x="719" 
d="M551 515l12 35l5 25q0 16 -11.5 25t-34.5 9l-58 1v57h268v-57h-28q-18 0 -31 -8t-23 -32l-4 -9l-4 -9l-217 -552h-99l-220 530l-11 24l-10 19q-15 25 -35 31q-22 5 -63 5l-1 58h322v-57h-63q-21 0 -30.5 -6t-9.5 -20l1 -11l5 -13l186 -453z" />
    <glyph glyph-name="W" unicode="W" horiz-adv-x="1061" 
d="M895 523l10 34l3 20q0 17 -10.5 24t-31.5 7l-59 1v58h267v-58h-33q-14 0 -25 -6q-9 -3 -18 -19l-13 -25l-14 -37l-183 -522h-98l-158 430l-152 -430h-99l-192 542l-4 10l-4 9q-15 33 -35 40t-58 7l-1 59h302v-58h-47q-28 0 -39 -8q-11 -6 -11 -23l2 -12l5 -17l152 -427
l143 401l-2 4l-1 5l-1 4q-9 27 -22 49.5t-47 22.5l-56 1v58h325v-58h-55q-25 0 -32.5 -4t-9.5 -19l1 -10l3 -13l2 -8q1 -5 2 -6l158 -427z" />
    <glyph glyph-name="X" unicode="X" horiz-adv-x="714" 
d="M619 103l9 -12l7 -8l9 -11l8 -7q5 -4 15 -8l24 -1l33 1v-57h-332v57h67h12q6 0 13.5 2.5t8.5 12.5l-4 10l-9 14l-2 3l-2 3l-8 10l-6 8l-123 153l-103 -124l-40 -51q-9 -12 -9 -20v-1q0 -11 8 -15.5t14.5 -5t13.5 -0.5l59 1v-57h-292v57q45 0 66.5 8.5t40.5 27.5l22 24
l26 31l153 178l-182 228l-22 24l-18 16q-15 9 -33 12l-47 2l-1 59h338v-58h-65q-19 0 -26 -4t-8 -15v-2q0 -6 5 -14l15 -21l117 -143l118 137l20 25q6 9 6 15q0 11 -8.5 16t-29.5 5l-61 1v58h300v-56q-43 0 -64 -6.5t-39 -21.5l-19 -20l-23 -26l-160 -178z" />
    <glyph glyph-name="Y" unicode="Y" horiz-adv-x="696" 
d="M508 532l23 37q6 12 6 19q0 10 -8.5 16t-27.5 6l-62 1v56h267v-57h-30q-27 0 -42.5 -18t-28.5 -39l-3 -4l-2 -3l-183 -277v-153q0 -37 12.5 -48.5t52.5 -11.5l55 1v-57h-347v57h52q41 0 54 10.5t13 47.5v148l-214 298l-17 20l-15 14q-14 12 -29 12l-43 2l-1 58h328v-57
h-64q-18 0 -29 -6q-7 -3 -8 -16v-4l1 -3l4 -9l9 -13l154 -216z" />
    <glyph glyph-name="Z" unicode="Z" horiz-adv-x="641" 
d="M607 606l-439 -545h246q76 0 103 49.5t33 114.5l3 32l1 31l57 1v-289h-581v61l437 545h-186q-98 0 -137 -42q-18 -20 -29.5 -60.5t-11.5 -95.5l-59 1v258h563v-61z" />
    <glyph glyph-name="bracketleft" unicode="[" horiz-adv-x="326" 
d="M192 -146h114v-57h-213v870h213v-57h-114v-756z" />
    <glyph glyph-name="backslash" unicode="\" horiz-adv-x="330" 
d="M376 -203h-83l-279 870h85z" />
    <glyph glyph-name="bracketright" unicode="]" horiz-adv-x="326" 
d="M133 611h-113v56h213v-870h-213v57h113v757z" />
    <glyph glyph-name="asciicircum" unicode="^" horiz-adv-x="500" 
d="M16 351l169 318h130l169 -318h-104l-130 240l-130 -240h-104z" />
    <glyph glyph-name="underscore" unicode="_" horiz-adv-x="500" 
d="M500 -58v-88h-500v88h500z" />
    <glyph glyph-name="grave" unicode="`" horiz-adv-x="500" 
d="M175 627l-8 7l-4 6l-1 3v4q0 7 6 12l20 4l87 1l63 -147h-47z" />
    <glyph glyph-name="a" unicode="a" horiz-adv-x="570" 
d="M563 197v-41q0 -64 -14.5 -116t-101.5 -52q-44 0 -70 23q-24 24 -31 71l-3 -4l-2 -4q-34 -48 -71.5 -69.5t-92.5 -21.5q-63 0 -102 33.5t-39 92.5q0 70 38.5 103.5t140.5 51.5l21 3l19 3q59 10 76.5 25t17.5 49q0 42 -28 64t-84 22q-32 0 -56 -8q-24 -6 -41 -23
q20 -3 30.5 -15t10.5 -31q0 -25 -18 -41.5t-45 -16.5q-24 0 -41.5 18.5t-17.5 46.5q0 55 50 88.5t137 33.5q51 0 86 -6.5t60 -22.5q28 -16 40 -40.5t12 -70.5v-238q0 -26 7.5 -38.5t23.5 -12.5q22 0 29 19q3 10 5 30.5t2 52.5v42h52zM330 243l-13 -6l-5 -2l-5 -2l-15 -5
l-19 -6l-55 -18l-37 -15q-26 -12 -33 -28t-7 -40q0 -30 20 -50q21 -18 57 -18q57 0 92.5 37t35.5 97v65z" />
    <glyph glyph-name="b" unicode="b" horiz-adv-x="611" 
d="M146 0h-48v550q0 40 -9 51t-47 11l-21 1v53h175v-278q25 45 67 69.5t95 24.5q91 0 149 -67t58 -175q0 -115 -59 -186t-151 -71q-44 0 -75.5 12t-60.5 44l-15 17l-14 21zM230 361q-38 -50 -38 -133q0 -76 36.5 -125.5t94.5 -49.5q62 0 99.5 48.5t37.5 131.5t-35 130.5
t-95 47.5q-61 1 -100 -50z" />
    <glyph glyph-name="c" unicode="c" horiz-adv-x="544" 
d="M504 192q-12 -94 -66.5 -151.5t-154.5 -57.5q-108 0 -172 65.5t-64 173.5q0 121 64.5 190.5t179.5 69.5q89 0 146 -37t57 -97q0 -37 -19.5 -59.5t-53.5 -22.5q-26 0 -45 18t-19 45q0 17 9 30.5t22 16.5h3l5 1l7 1l3 6q0 11 -19 20q-11 5 -15 7t-25 7l-25 3l-20 2
q-68 0 -110 -51q-20 -25 -30 -59.5t-10 -82.5q0 -84 41 -133t114 -49q52 0 89.5 39t49.5 104z" />
    <glyph glyph-name="d" unicode="d" horiz-adv-x="625" 
d="M415 85q-32 -56 -70.5 -79t-95.5 -23q-84 0 -143.5 67.5t-59.5 167.5q0 116 60.5 190t156.5 74q49 0 89 -21.5t63 -62.5v152q0 40 -9 51t-47 11l-42 1v53h194v-550q0 -43 10 -53.5t47 -10.5l29 1v-53h-182v85zM187 360q-36 -50 -36 -135q0 -80 33 -126t95 -46
q63 0 101.5 49.5t38.5 131.5q0 83 -35.5 130t-100.5 47q-60 2 -96 -51z" />
    <glyph glyph-name="e" unicode="e" horiz-adv-x="558" 
d="M154 229q0 -70 32.5 -124.5t115.5 -54.5q53 0 92.5 32.5t54.5 90.5l64 1q-18 -91 -78.5 -141t-146.5 -50q-108 0 -174.5 66.5t-66.5 176.5q0 119 64.5 187.5t174.5 68.5q82 0 141 -39t77 -105l4 -17l3 -13l3 -31l1 -49zM374 389q-34 37 -90 37q-51 0 -89 -39
q-33 -36 -41 -102l255 1q0 65 -35 103z" />
    <glyph glyph-name="f" unicode="f" horiz-adv-x="343" 
d="M327 467v-56h-114v-295q0 -41 9 -52.5t47 -11.5l56 1v-53h-303v53h36q37 0 47 11t10 51v296h-95v56h95v58q0 68 39 109.5t110 41.5q48 0 80 -24.5t32 -61.5q0 -25 -15.5 -43t-39.5 -18q-23 0 -38 14q-14 16 -14 37q0 15 9 28t25 16l-14 6l-11 3l-7 1h-6q-27 0 -39.5 -16
t-12.5 -54v-97h114z" />
    <glyph glyph-name="g" unicode="g" horiz-adv-x="598" 
d="M119 137q-6 -8 -8 -24q0 -25 24 -37q27 -10 88 -10l172 1q84 0 117.5 -25.5t33.5 -83.5q0 -78 -56.5 -113.5t-124.5 -45.5l-42 -4l-40 -2q-107 0 -166 15t-82 50l-9 17l-5 18l-1 8v7q0 30 17 50q18 18 57 33q-28 12 -43.5 33.5t-15.5 49.5q0 37 18.5 61.5t61.5 40.5
q-30 22 -45.5 52t-15.5 67q0 85 57 136t152 51q49 0 90.5 -14.5t71.5 -44.5q17 27 44.5 43t55.5 16q35 0 57.5 -20.5t22.5 -54.5q0 -29 -15 -48t-39 -19q-19 0 -33.5 15.5t-14.5 37.5q0 13 4.5 20.5t15.5 17.5l2 2l-2 3l-7 1q-18 0 -34.5 -10.5t-33.5 -33.5q10 -17 16 -39.5
t6 -46.5q0 -76 -57 -125t-149 -49q-30 0 -60 6t-58 18q-17 -9 -27 -20zM107 -45q-8 -14 -8 -34q0 -39 45 -57.5t135 -18.5q91 0 132.5 18.5t41.5 60.5q0 26 -20 39t-60 13l-116 2l-46 1h-32l-22 1l-25 1q-17 -12 -25 -26zM186 397q-27 -33 -27 -92q0 -56 27 -92
q28 -34 75 -34q50 0 78 35t28 92q0 61 -27.5 93.5t-81.5 32.5q-45 1 -72 -35z" />
    <glyph glyph-name="h" unicode="h" horiz-adv-x="665" 
d="M222 401q26 39 68 60.5t97 21.5q72 0 115.5 -38t43.5 -103v-226q0 -42 9.5 -53t47.5 -11l36 1v-53h-277v53h30q37 0 46.5 10.5t9.5 51.5v209q0 42 -27.5 66.5t-73.5 24.5q-55 0 -90 -32t-35 -82v-185q0 -41 9 -52.5t47 -11.5l33 1v-53h-280v53h36q37 0 47 11t10 51v436
q0 39 -9.5 50t-47.5 11l-36 1v54h191v-266z" />
    <glyph glyph-name="i" unicode="i" horiz-adv-x="346" 
d="M227 116q0 -41 9 -52.5t47 -11.5l36 1v-53h-289v53h42q37 0 47 11t10 51v236q0 39 -9.5 50t-47.5 11l-42 1v54h197v-351zM221 649q19 -19 19 -45t-19 -45t-46 -19q-26 0 -45 19t-19 45q0 27 19 45.5t45 18.5q27 1 46 -19z" />
    <glyph glyph-name="j" unicode="j" horiz-adv-x="309" 
d="M229 8v-10v-9q0 -37 -8.5 -67t-27.5 -66q-32 -61 -120 -61q-48 0 -80 29q-32 27 -32 69q0 32 18.5 53.5t46.5 21.5q26 0 42.5 -15.5t16.5 -41.5t-18 -41q-5 -3 -17 -8t-27 -5l2 -2l2 -3q6 -6 16 -11l21 -4q38 0 52.5 23.5t14.5 92.5v397q0 41 -9.5 51.5t-47.5 10.5l-46 1
v53h201v-458zM210 649q19 -19 19 -45q0 -27 -19 -46t-46 -19t-46 19t-19 46q0 26 19 45t46 19q27 1 46 -19z" />
    <glyph glyph-name="k" unicode="k" horiz-adv-x="637" 
d="M222 223l143 116q9 7 20.5 16.5t21 20.5t9.5 21q0 6 -7 9l-18 4l-69 1v56h303v-56h-39l-25 -3l-20 -7l-12 -6l-13 -9l-117 -91l147 -202l13 -18l13 -12l16 -9l18 -2l32 1v-53h-282v53h55q11 0 17.5 3t8.5 12v4l-4 8l-6 11l-105 144l-100 -81v-38q0 -41 9 -52.5t47 -11.5
l30 1v-53h-277v53h36q37 0 47 11t10 51v436q0 39 -9.5 50t-47.5 11l-36 1v54h191v-444z" />
    <glyph glyph-name="l" unicode="l" horiz-adv-x="340" 
d="M221 116q0 -41 9 -52.5t47 -11.5l36 1v-53h-283v53h36q37 0 47 11t10 51v436q0 39 -9.5 50t-47.5 11l-36 1v54h191v-551z" />
    <glyph glyph-name="m" unicode="m" horiz-adv-x="957" 
d="M216 389q31 47 70 71q39 22 91 22q59 0 95 -22.5t55 -71.5q27 46 67.5 70t94.5 24q86 0 120.5 -45t34.5 -125v-196q0 -42 9.5 -53t47.5 -11l29 1v-53h-266v53h25q37 0 47 11t10 51v187q0 59 -22 84t-72 25q-52 0 -84.5 -36.5t-32.5 -96.5v-162q0 -42 9.5 -53t47.5 -11
l29 1v-53h-270v53h30q37 0 46.5 10.5t9.5 51.5v187q0 57 -23 83q-21 26 -73 26q-57 0 -88.5 -37.5t-31.5 -105.5v-152q0 -41 9 -52.5t47 -11.5l30 1v-53h-277v53h36q37 0 47 11t10 51v236q0 39 -9.5 50t-47.5 11l-36 1v54h189z" />
    <glyph glyph-name="n" unicode="n" horiz-adv-x="661" 
d="M217 391l21 24q10 14 20 21q27 26 59 36t71 10q74 0 117.5 -39.5t43.5 -114.5v-212q0 -41 9 -52.5t47 -11.5l30 1v-53h-273v53h29q37 0 47 11t10 51v193q0 54 -23 80t-71 26q-58 0 -95.5 -32.5t-37.5 -85.5v-180q0 -41 9 -52.5t47 -11.5l30 1v-53h-277v53h36q37 0 47 11
t10 51v236q0 39 -9.5 50t-47.5 11l-36 1v54h191z" />
    <glyph glyph-name="o" unicode="o" horiz-adv-x="598" 
d="M480 413q71 -68 71 -177q0 -116 -68 -184.5t-183 -68.5q-108 0 -181 65.5t-73 177.5q0 60 16 105.5t52 81.5q69 69 185 69q111 1 181 -69zM194 371q-38 -52 -38 -142q0 -94 36.5 -141t109.5 -47q64 0 101.5 48.5t37.5 134.5q0 96 -36.5 147.5t-107.5 51.5q-64 1 -103 -52
z" />
    <glyph glyph-name="p" unicode="p" horiz-adv-x="628" 
d="M212 387l33 39q15 16 31 28q21 15 46 22t59 7q88 0 144 -66.5t56 -170.5q0 -115 -58.5 -188.5t-147.5 -73.5q-48 0 -82.5 16.5t-66.5 57.5l-5 6l-4 7v-158q0 -40 9 -51.5t47 -11.5h46v-53h-293v53h36q37 0 47 11.5t10 51.5v438q0 40 -9.5 51t-47.5 11l-36 1v53h191z
M249 360q-37 -51 -37 -130q0 -76 36.5 -126t92.5 -50q64 0 99 48.5t35 139.5q0 81 -33.5 125t-96.5 44q-57 2 -96 -51z" />
    <glyph glyph-name="q" unicode="q" horiz-adv-x="621" 
d="M417 467h178v-53h-26q-35 0 -47 -12q-10 -12 -10 -52v-437q0 -41 9.5 -52t47.5 -11h26v-53h-277v53h42q37 0 47 11.5t10 51.5v163q-27 -49 -67 -70.5t-102 -21.5q-86 0 -143.5 66.5t-57.5 170.5q0 111 60.5 186.5t149.5 75.5q38 0 65.5 -9.5t53.5 -34.5l20 -23l21 -27v78
zM186 361q-34 -51 -34 -139q0 -75 36 -119.5t96 -44.5q62 0 99 47.5t37 122.5l-1 15v15q-6 59 -38 105q-30 48 -99 48q-60 1 -96 -50z" />
    <glyph glyph-name="r" unicode="r" horiz-adv-x="449" 
d="M216 366l42 54q17 20 38 35q14 10 33 16t38 6q39 0 63.5 -23t24.5 -58q0 -32 -17.5 -54.5t-46.5 -22.5q-24 0 -40 16t-16 39q0 11 3.5 20.5t11.5 14.5l3 2l3 3l2 5l-3 4l-9 2q-8 0 -18 -5q-9 -2 -23 -12l-11 -9l-11 -10q-20 -21 -34 -47q-3 -7 -10 -27t-13 -40v-159
q0 -41 9 -52.5t47 -11.5l56 1v-53h-309v53h42q37 0 47 11t10 51v236q0 39 -9.5 50t-47.5 11l-42 1v54h190z" />
    <glyph glyph-name="s" unicode="s" horiz-adv-x="506" 
d="M391 474h51v-172h-51q-18 58 -59 87q-39 30 -102 30q-41 0 -71 -18q-27 -18 -27 -46t33 -42q30 -11 81 -22l26 -6q18 -2 27 -5q33 -8 60 -18t55 -26q52 -29 52 -98q0 -74 -49.5 -114.5t-140.5 -40.5q-50 0 -91.5 15.5t-76.5 48.5l-15 -55h-49v187h55l4 -18l5 -13l9 -23
l11 -17l5 -6l6 -6q16 -18 44 -30.5t56 -18.5l14 -2h14q47 0 75.5 18.5t28.5 50.5q0 36 -35.5 50.5t-91.5 27.5l-19 4l-19 4q-65 12 -115.5 40t-50.5 101q0 75 53 106q58 35 116 35h7h7q47 0 86 -15q39 -13 67 -43z" />
    <glyph glyph-name="t" unicode="t" horiz-adv-x="363" 
d="M329 466v-56h-135v-304q0 -27 10 -40t30 -13q27 0 37 21t10 71v48h55v-47q0 -91 -27.5 -127t-100.5 -36q-57 0 -85.5 28t-28.5 85v314h-87v56q60 0 90 43q16 23 25 48t9 50l1 10v10l62 1v-162h135z" />
    <glyph glyph-name="u" unicode="u" horiz-adv-x="652" 
d="M441 78q-27 -50 -68 -73q-19 -10 -43.5 -16t-53.5 -6q-90 0 -123.5 39.5t-33.5 124.5v205q0 39 -9.5 50t-47.5 11l-36 1v53h191v-305q0 -60 22.5 -85.5t77.5 -25.5q52 0 88 36t36 88v177q0 39 -9.5 50t-47.5 11l-36 1v53h191v-351q0 -42 9 -54q10 -10 47 -10l30 1v-53
h-184v78z" />
    <glyph glyph-name="v" unicode="v" horiz-adv-x="542" 
d="M410 371l1 4l2 6l1 6q0 14 -8 19.5t-30 5.5l-42 1v54h222v-54h-29q-16 0 -27 -11q-10 -8 -20 -32l-155 -370h-97l-145 355l-2 4q-15 38 -36 45t-57 7l-1 56h274v-55h-47q-17 0 -28 -6q-9 -3 -9 -14v-6l2 -7v-6l2 -4l115 -282z" />
    <glyph glyph-name="w" unicode="w" horiz-adv-x="798" 
d="M662 372l2 6l1 7l1 7q0 11 -14 14t-55 3v58h214v-55q-42 0 -55.5 -10t-21.5 -33l-4 -9l-3 -10l-123 -350h-103l-101 301l-113 -301h-96l-112 346q-12 40 -31 52.5t-60 12.5l-1 56h256v-57h-52q-11 0 -19 -6q-6 -3 -6 -13l1 -10l2 -10l90 -276l105 285l2 7l1 6q0 7 -6 12
l-19 4l-55 1v57h266v-57h-52q-16 0 -22 -5q-6 -3 -6 -14l1 -4l1 -4l2 -4l95 -278z" />
    <glyph glyph-name="x" unicode="x" horiz-adv-x="578" 
d="M501 86l6 -7l6 -6l19 -15q9 -6 25 -6l30 1v-53h-294v53h58q13 0 19 3t6 12q0 6 -4 11l-8 9l-4 3l-86 93l-84 -82l-19 -21l-6 -11v-3q0 -8 7.5 -11.5t28.5 -3.5l46 1v-53h-258v53h34q11 0 25 6l16 9l20 17l150 142l-134 141l-20 20l-17 13q-9 5 -28 8l-39 2l-1 56h291v-57
h-46q-15 0 -22 -3.5t-7 -11.5l3 -10l7 -7l2 -2l2 -2l78 -80l88 81q7 5 9 11l4 10q0 7 -5.5 10t-19.5 3l-46 1v57h248l2 -55h-26l-13 -2l-12 -3q-12 -3 -25 -13l-31 -27l-131 -118z" />
    <glyph glyph-name="y" unicode="y" horiz-adv-x="548" 
d="M408 357l6 16l2 12v2q0 14 -8 19q-6 6 -26 6l-46 1v54h226v-55h-25l-21 -3q-8 -2 -14 -9t-14 -23l-15 -35l-163 -374l-4 -10l-5 -9q-29 -66 -68.5 -109.5t-122.5 -43.5q-56 0 -89 29t-33 79q0 37 20 60t53 23q28 0 45.5 -17.5t17.5 -44.5q0 -29 -17 -43q-15 -15 -48 -15
l3 -3l4 -4q9 -9 21 -12l27 -3q44 0 73.5 28.5t58.5 99.5l-163 384l-2 4q-15 35 -36 42q-19 8 -55 8l-1 56h271v-54h-43q-21 0 -30 -6q-9 -3 -9 -14l2 -12l6 -17l1 -4l2 -4l111 -259z" />
    <glyph glyph-name="z" unicode="z" horiz-adv-x="486" 
d="M472 413l-330 -356h141q86 0 110 47q12 26 18 54.5t6 67.5l55 1v-227h-459v57l330 353h-143q-68 0 -86 -43q-8 -23 -13.5 -49t-5.5 -53l-56 1v201h433v-54z" />
    <glyph glyph-name="braceleft" unicode="{" horiz-adv-x="500" 
d="M274 187q5 -12 9 -32.5t4 -42.5v-148q0 -49 17 -65t69 -16h5l7 1v-86l-26 -1q-83 0 -126.5 26t-43.5 120v165q0 41 -12.5 61.5t-43.5 27.5v82q29 6 42.5 25.5t13.5 56.5v173q0 72 34.5 105.5t113.5 33.5h12h12l12 -1h12v-85h-11q-53 0 -70 -15.5t-17 -64.5v-151
q0 -47 -11 -72t-46 -48l-3 -2q31 -18 47 -47z" />
    <glyph glyph-name="bar" unicode="|" horiz-adv-x="500" 
d="M299 666v-833h-98v833h98z" />
    <glyph glyph-name="braceright" unicode="}" horiz-adv-x="500" 
d="M270 236q-33 21 -45.5 45.5t-12.5 73.5v153q0 54 -23.5 66t-73.5 12v87l12 -1l12 1h12h12q77 0 112.5 -33t35.5 -107v-171q0 -38 12.5 -56.5t43.5 -27.5v-80q-30 -7 -43 -28t-13 -63v-164q0 -78 -34 -112t-113 -34h-12h-12l-13 1h-12v86l7 -1h5q53 0 69 16t16 65v149
q0 47 13 73.5t48 47.5z" />
    <glyph glyph-name="asciitilde" unicode="~" horiz-adv-x="667" 
d="M92 608q11 23 23.5 43.5t29.5 41.5q32 40 90 40q26 0 52 -9q16 -6 27 -10t24 -10l12 -6l14 -5l36 -13q12 -3 18 -4t19 -1q19 0 30 5.5t26 18.5l12 16l13 20l57 -32q-21 -47 -57 -85t-95 -38q-24 0 -50 9l-47 20l-4 2l-46 18q-23 9 -47 9q-20 0 -33 -8q-14 -6 -27 -25
l-11 -16l-10 -18z" />
    <glyph glyph-name="nonbreakingspace" unicode="&#xa0;" 
 />
    <glyph glyph-name="exclamdown" unicode="&#xa1;" horiz-adv-x="267" 
d="M156 305l40 -388l2 -29l1 -10q0 -27 -19 -46t-46 -19q-30 0 -48.5 18.5t-18.5 48.5l1 17l2 25l42 383h44zM181 463q19 -19 19 -47q0 -27 -19 -46.5t-47 -19.5q-27 0 -47 19q-19 21 -19 47q0 27 19.5 47t46.5 20q26 1 47 -20z" />
    <glyph glyph-name="cent" unicode="&#xa2;" horiz-adv-x="567" 
d="M278 683h53v-98q37 0 66.5 -11.5t57.5 -33.5q50 -38 50 -92q0 -32 -21 -55q-22 -20 -53 -20q-28 0 -45.5 17.5t-17.5 42.5q0 21 9.5 33.5t21.5 14.5t13 3l2 5l-1 4l-2 4q-6 10 -23 17t-41 12h-8l-8 1v-375q48 5 81 41.5t43 95.5l57 1q-9 -85 -57.5 -138.5t-123.5 -65.5
v-107h-53v108q-49 0 -90 18.5t-73 52.5q-59 65 -59 170q0 116 58 183q29 34 70.5 53.5t93.5 19.5v99zM193 465q-32 -52 -32 -131q0 -74 30 -120.5t87 -58.5v370q-52 -7 -85 -60z" />
    <glyph glyph-name="sterling" unicode="&#xa3;" horiz-adv-x="567" 
d="M381 334v-50h-120q0 -9 2 -13q1 -7 2 -9v-6v-5q0 -46 -25 -81q-12 -17 -24.5 -33t-28.5 -34l-2 -2l-9 -10l-7 -8q26 14 44 21q5 2 15.5 5.5t21.5 5.5h10l11 1q21 0 44 -9q10 -4 17.5 -6.5t24.5 -10.5l17 -9l16 -7l24 -8l24 -3q23 0 33 19.5t10 64.5v6l-1 11l55 1l-2 -20
l-1 -19l-1 -10v-11q0 -21 -5.5 -42t-16.5 -42q-18 -38 -87 -38q-29 0 -59 9l-55 20l-29 11l-28 11l-25 5l-25 3l-9 -1h-8q-20 -3 -42.5 -14.5t-45.5 -31.5l-24 60q52 39 78.5 82t26.5 91q0 12 -4 27t-11 28l-90 1v50h61q-22 34 -33 66t-11 61q0 81 63 136t159 55
q99 0 156.5 -42.5t57.5 -115.5q0 -40 -19 -63.5t-53 -23.5q-26 0 -44 17.5t-18 42.5q0 22 15 37t37 15h6l6 -1l10 -2q-9 30 -45 49.5t-90 19.5q-58 0 -95.5 -32t-37.5 -82q0 -29 10 -56l24 -53l7 -15l7 -14z" />
    <glyph glyph-name="currency" unicode="&#xa4;" horiz-adv-x="667" 
d="M138 227q-24 32 -36 67t-12 72l3 43q3 19 12 40l14 28l18 29l-99 100l54 54l99 -99l32 19l31 14l39 10l43 4q24 0 42.5 -3.5t41.5 -12.5l26 -13l28 -18l99 99l54 -54l-98 -98l22 -38l15 -33q5 -12 8 -35l3 -36l-3 -38l-9 -35l-15 -33q-4 -8 -8.5 -16t-11.5 -17l99 -98
l-54 -54l-99 99q-17 -13 -32 -21.5t-37 -16.5q-33 -12 -73 -12h-12q-7 0 -21 2l-32 8q-13 3 -19 5t-19 9l-39 24l-99 -97l-53 54zM225 475q-45 -45 -45 -109q0 -62 45 -108t109 -46q63 0 108 45t45 109q0 62 -44.5 108.5t-108.5 46.5q-63 1 -109 -46z" />
    <glyph glyph-name="yen" unicode="&#xa5;" horiz-adv-x="567" 
d="M525 413v-50h-132l-35 -60h153v-50h-164v-140q0 -36 12 -50q13 -11 53 -11l46 1v-53h-321v53h42q40 0 53 10q13 13 13 49v141h-162v50h148l-39 60h-122v50h90l-99 151l-10 12l-8 11q-12 13 -27.5 19t-41.5 6l-1 55h282v-54h-51q-18 0 -29 -6q-7 -3 -8 -16l1 -10l5 -11
l2 -4l2 -4l142 -219l110 192l20 36q6 11 6 19v1q0 10 -9.5 15.5t-26.5 5.5l-50 1v54h225v-54q-33 0 -47.5 -8.5t-25.5 -25.5l-8 -14l-9 -16l-81 -136h102z" />
    <glyph glyph-name="brokenbar" unicode="&#xa6;" 
 />
    <glyph glyph-name="section" unicode="&#xa7;" horiz-adv-x="567" 
d="M207 -116q21 -6 52 -6q63 0 99 26.5t36 72.5q0 48 -44 72t-103 42l-13 4q-8 2 -12 5q-66 21 -119.5 53t-53.5 103q0 47 27 83q26 32 86 59q-36 24 -57 54q-19 32 -19 65q0 72 56 119t144 47q84 0 135 -35q53 -33 53 -89q0 -29 -19.5 -48.5t-49.5 -19.5q-24 0 -44 17
q-18 18 -18 41q0 15 4.5 26t16.5 22l6 5l8 6q-15 10 -36 15.5t-52 5.5q-48 0 -82 -24.5t-34 -60.5q0 -47 43 -71q43 -21 100 -39l14 -5l15 -4q63 -21 117.5 -53.5t54.5 -105.5q0 -45 -24 -78q-22 -33 -78 -63q38 -22 57 -53t19 -75q0 -79 -61 -126.5t-162 -47.5
q-83 0 -140 38t-57 94q0 29 21 51t52 22q30 0 48.5 -17t18.5 -45q0 -12 -3.5 -20.5t-12.5 -19.5l-12 -10l-15 -12q15 -12 38 -20zM424 268q-6 13 -23 26l-30 18l-44 21l-58 21l-43 9h-7h-6q-30 0 -53.5 -25t-23.5 -56q0 -29 36 -56q36 -24 80 -40l59 -17q29 -6 44 -6
q30 0 53 22.5t23 51.5q0 18 -7 31z" />
    <glyph glyph-name="dieresis" unicode="&#xa8;" horiz-adv-x="449" 
d="M163 641q17 -17 17 -41q0 -23 -17 -40t-40 -17t-40 17t-17 40q0 24 17 41t40 17q23 1 40 -17zM365 641q17 -17 17 -41q0 -23 -17 -40t-40 -17t-40 17t-17 40q0 24 17 41t40 17q23 1 40 -17z" />
    <glyph glyph-name="copyright" unicode="&#xa9;" horiz-adv-x="769" 
d="M629 579q101 -103 101 -247q0 -71 -25 -133.5t-76 -113.5q-99 -102 -242 -102t-245.5 102.5t-102.5 246.5q0 146 101.5 248t246.5 102q140 1 242 -103zM179 544q-85 -88 -85 -212q0 -123 85.5 -211.5t206.5 -88.5q119 0 204 88t85 212t-85 212t-204 88q-120 2 -207 -88z
M517 527h39v-156h-40q0 45 -36 77.5t-79 36.5h-6h-5q-63 0 -101 -43t-38 -115q0 -66 36.5 -105.5t98.5 -39.5q51 0 86.5 29.5t47.5 81.5l1 4h47q-7 -77 -57.5 -120.5t-133.5 -43.5q-93 0 -150 53t-57 138q0 90 55.5 148.5t142.5 58.5l23 -1q15 0 23 -2q24 -3 47 -13
q23 -8 39 -25z" />
    <glyph glyph-name="ordfeminine" unicode="&#xaa;" horiz-adv-x="331" 
d="M327 284h-306v40h306v-40zM330 494v-27q0 -53 -15.5 -75.5t-51.5 -22.5q-17 0 -33 6t-19 16t-8 16l-3 7l-3 1l-8 -8l-17 -19q-7 -8 -26 -15t-43 -7q-39 0 -62 20t-23 54q0 48 28 64q14 8 28 13.5t35 9.5q7 0 11 2q8 0 12 2q29 3 48.5 11t19.5 30t-16 33.5t-49 11.5
q-10 0 -16 -2q-6 0 -14 -4l-8 -3l-7 -3q9 -3 13 -9.5t6 -18.5q0 -14 -12 -26q-12 -10 -28 -10t-27 12t-11 28q0 32 30.5 52t82.5 20q64 0 90.5 -18.5t26.5 -63.5v-133q0 -13 3 -18t13 -7q10 0 13.5 10.5t3.5 42.5v28h36zM186 510l-13 -4l-11 -4l-12 -3q-22 -6 -43 -17.5
t-21 -34.5q0 -15 11 -24.5t30 -9.5q48 0 60 31q11 33 11 70z" />
    <glyph glyph-name="guillemotleft" unicode="&#xab;" horiz-adv-x="435" 
d="M192 439l-39 -102q-1 -3 -7 -27.5t-6 -36.5q0 -18 4 -37l12 -39l8 -22q4 -14 8 -21l10 -23l9 -21l-58 1q-33 50 -62 101q-24 47 -24 61q0 15 9 36t24 45l6 12l8 12l21 33l18 27zM388 439l-39 -102q-1 -3 -7 -27.5t-6 -36.5q0 -18 4 -37l12 -39l8 -22q4 -14 8 -21l10 -23
l9 -21l-58 1q-33 50 -62 101q-24 47 -24 61q0 15 9 36q4 9 10 21t13 23l7 12l8 13l21 33l18 27z" />
    <glyph glyph-name="logicalnot" unicode="&#xac;" 
 />
    <glyph glyph-name="minus" unicode="&#xad;" horiz-adv-x="500" 
 />
    <glyph glyph-name="registered" unicode="&#xae;" horiz-adv-x="769" 
d="M629 579q101 -103 101 -247q0 -71 -25 -133.5t-76 -113.5q-99 -102 -242 -102t-245.5 102.5t-102.5 246.5q0 146 101.5 248t246.5 102q140 1 242 -103zM179 544q-85 -88 -85 -212q0 -123 85.5 -211.5t206.5 -88.5q119 0 204 88t85 212t-85 212t-204 88q-120 2 -207 -88z
M601 261v-44q0 -42 -19 -61.5t-59 -19.5q-51 0 -63 29q-6 19 -8.5 33t-2.5 32t-2.5 30.5t-10.5 36.5t-58 24l-54 1v-111q0 -19 7 -26q7 -5 30 -5l27 1v-38h-198v38h24q23 0 30 4q7 7 7 25v245q0 17 -6.5 23t-30.5 6l-24 1v38h238q59 0 91 -26q32 -24 32 -69q0 -38 -14.5 -54
t-46.5 -30l-10 -4l-9 -4q32 -19 41.5 -40.5t9.5 -57.5q0 -34 5 -43q3 -10 16 -10q8 0 14 7l4 24v45h40zM401 362q32 0 52 15q19 17 19 46q0 28 -18.5 43t-56.5 15l-73 1v-120h77z" />
    <glyph glyph-name="macron" unicode="&#xaf;" 
 />
    <glyph glyph-name="glyph114" unicode="&#xb0;" 
 />
    <glyph glyph-name="plusminus" unicode="&#xb1;" horiz-adv-x="567" 
d="M500 143v-91h-433v91h433zM235 439v163h98v-163h167v-91h-167v-163h-98v163h-168v91h168z" />
    <glyph glyph-name="twosuperior" unicode="&#xb2;" 
 />
    <glyph glyph-name="threesuperior" unicode="&#xb3;" 
 />
    <glyph glyph-name="acute" unicode="&#xb4;" horiz-adv-x="500" 
d="M162 517l62 147h88q13 0 18.5 -4t7.5 -13l-1 -4l-4 -9l-8 -8l-117 -109h-46z" />
    <glyph glyph-name="mu" unicode="&#xb5;" horiz-adv-x="544" 
d="M60 479h98v-256q0 -77 28.5 -113.5t86.5 -36.5q61 0 84 40.5t29 91.5l1 12v12v250h98v-479h-98v72q-21 -43 -49 -63.5t-67 -20.5q-36 0 -65 15q-26 15 -48 52v-225h-98v649z" />
    <glyph glyph-name="paragraph" unicode="&#xb6;" horiz-adv-x="567" 
d="M201 317q-78 0 -136 42t-58 129q0 102 69.5 139.5t155.5 37.5l299 1v-76h-66v-686h-84v686h-95v-686h-85v413z" />
    <glyph glyph-name="cedilla" unicode="&#xb8;" horiz-adv-x="500" 
d="M240 -57l15 3q7 0 11 2h4h5q34 0 56.5 -18.5t22.5 -46.5q0 -35 -31 -57.5t-77 -22.5l-20 1q-12 0 -22.5 2t-26 6.5t-30.5 11.5l15 33l34 -12l31 -5h5h4q25 0 39 11q14 9 14 28q0 15 -13 27q-13 10 -33 10h-4l-15 -3l-20 -6l-17 16l54 78h39z" />
    <glyph glyph-name="onesuperior" unicode="&#xb9;" 
 />
    <glyph glyph-name="ordmasculine" unicode="&#xba;" horiz-adv-x="347" 
d="M319 284h-290v40h290v-40zM281 613q42 -39 42 -102q0 -66 -39.5 -105.5t-108.5 -39.5q-33 0 -60 9t-49 29q-42 39 -42 102q0 67 41 107t109 40q66 1 107 -40zM115 585q-21 -27 -21 -77t21 -77q22 -25 61 -25q37 0 57 26t20 73q0 51 -20.5 79.5t-59.5 28.5q-36 1 -58 -28z
" />
    <glyph glyph-name="guillemotright" unicode="&#xbb;" horiz-adv-x="435" 
d="M47 111q26 58 39.5 101t13.5 63q0 8 -1 17t-3 17.5t-5 20t-7 20.5l-8 18l-6 19l-12 27l-9 24l57 1q35 -54 61 -103q23 -45 25 -61q0 -16 -10 -37l-22 -43l-8 -14l-8 -13l-21 -32l-17 -26zM243 111q26 57 39.5 100t13.5 64q0 8 -1 17t-4 19l-12 40l-7 18l-6 17l-12 27
l-9 25l57 1q35 -54 61 -103q23 -45 25 -61q0 -15 -9 -36l-22 -44l-9 -15l-9 -14q-10 -19 -11 -20q-6 -8 -9 -11l-17 -25z" />
    <glyph glyph-name="onequarter" unicode="&#xbc;" 
 />
    <glyph glyph-name="onehalf" unicode="&#xbd;" horiz-adv-x="834" 
d="M799 137v-20l-1 -20q0 -18 -5 -35.5t-13 -33.5t-23.5 -24t-40.5 -8q-19 0 -39 6l-37 14l-4 2l-4 1l-33 12q-15 6 -33 6q-12 0 -16.5 -4.5t-6.5 -21.5v-11h-47v15l1 17q0 23 6 44t21 43q15 17 36 30l45 25l7 4l8 4q33 17 61.5 39.5t28.5 53.5q0 30 -23.5 49t-59.5 19h-6
l-6 -1q-15 0 -31 -5t-21 -12l-20 -22l3 -2l4 1l4 1h6q16 0 29 -10q5 -4 9 -11.5t4 -16.5q0 -18 -14 -30.5t-36 -12.5t-38.5 18.5t-16.5 42.5q0 45 40.5 76.5t97.5 31.5q68 0 110.5 -32t42.5 -84q0 -57 -36 -82t-83 -44l-12 -4l-11 -4q-31 -11 -59 -26.5t-36 -42.5l11 6l9 3
l7 1l9 1q18 0 33 -4l32 -7l32 -9l33 -3q22 0 31.5 17t9.5 35l1 12v12zM647 667l-405 -667h-55l401 667h59zM231 339q0 -20 6 -29q6 -6 26 -6l49 1v-38h-235v38h51q17 0 25 6q7 9 7 27v204h-83v39h5q5 1 6 2l17 3l19 5q13 4 19 7t18 13q18 15 18 45l52 1v-318z" />
    <glyph glyph-name="threequarters" unicode="&#xbe;" 
 />
    <glyph glyph-name="questiondown" unicode="&#xbf;" horiz-adv-x="557" 
d="M297 302q0 -68 -25 -108q-22 -39 -51 -69l-12 -12l-11 -12q-19 -20 -38 -49q-15 -24 -15 -61q0 -50 41 -82.5t103 -32.5q55 0 91.5 27.5t43.5 76.5l-19 -8l-16 -4h-5q-26 0 -43.5 17t-17.5 45q0 29 21 50t52 21q35 0 61.5 -31t26.5 -73q0 -82 -59.5 -133t-156.5 -51
q-105 0 -169.5 49t-64.5 131q0 65 33 100t72 63q34 24 67 57q29 31 37 88zM318 463q19 -19 19 -47q0 -27 -19 -46.5t-47 -19.5q-27 0 -47 19q-19 21 -19 47q0 27 19.5 47t46.5 20q26 1 47 -20z" />
    <glyph glyph-name="Agrave" unicode="&#xc0;" horiz-adv-x="757" 
d="M215 222l-8 -20l-9 -20l-7 -17l-6 -17l-10 -30l-3 -27q0 -18 12.5 -26.5t42.5 -8.5l53 1v-57h-296v57q48 0 71 6q21 7 37 37l10 22l12 27l207 518h105l227 -531l7 -16l7 -13q11 -21 25 -36t46 -15l36 1v-57h-325v57h57q11 0 20 0.5t17.5 4t10.5 17.5l-2 11l-8 20l-47 112
h-282zM349 569l-111 -286h234zM304 827l-8 7l-4 6l-1 3v4q0 7 6 12l20 4l87 1l63 -147h-47z" />
    <glyph glyph-name="Aacute" unicode="&#xc1;" horiz-adv-x="757" 
d="M215 222l-8 -20l-9 -20l-7 -17l-6 -17l-10 -30l-3 -27q0 -18 12.5 -26.5t42.5 -8.5l53 1v-57h-296v57q48 0 71 6q21 7 37 37l10 22l12 27l207 518h105l227 -531l7 -16l7 -13q11 -21 25 -36t46 -15l36 1v-57h-325v57h57q11 0 20 0.5t17.5 4t10.5 17.5l-2 11l-8 20l-47 112
h-282zM349 569l-111 -286h234zM291 717l62 147h88q13 0 18.5 -4t7.5 -13l-1 -4l-4 -9l-8 -8l-117 -109h-46z" />
    <glyph glyph-name="Acircumflex" unicode="&#xc2;" horiz-adv-x="757" 
d="M215 222l-8 -20l-9 -20l-7 -17l-6 -17l-10 -30l-3 -27q0 -18 12.5 -26.5t42.5 -8.5l53 1v-57h-296v57q48 0 71 6q21 7 37 37l10 22l12 27l207 518h105l227 -531l7 -16l7 -13q11 -21 25 -36t46 -15l36 1v-57h-325v57h57q11 0 20 0.5t17.5 4t10.5 17.5l-2 11l-8 20l-47 112
h-282zM349 569l-111 -286h234zM291 723h-65l109 145h96l101 -145h-88l-72 84z" />
    <glyph glyph-name="Atilde" unicode="&#xc3;" horiz-adv-x="757" 
d="M215 222l-8 -20l-9 -20l-7 -17l-6 -17l-10 -30l-3 -27q0 -18 12.5 -26.5t42.5 -8.5l53 1v-57h-296v57q48 0 71 6q21 7 37 37l10 22l12 27l207 518h105l227 -531l7 -16l7 -13q11 -21 25 -36t46 -15l36 1v-57h-325v57h57q11 0 20 0.5t17.5 4t10.5 17.5l-2 11l-8 20l-47 112
h-282zM349 569l-111 -286h234zM557 851q0 -52 -27.5 -86.5t-67.5 -34.5q-20 0 -44 6l-44 13l-22 7l-22 6l-21 4l-22 2q-17 0 -23 -8.5t-9 -36.5l-54 1q0 55 24.5 87t68.5 32q21 0 44 -6l44 -11l44 -13q14 -3 21 -4t23 -1t26 11t10 31z" />
    <glyph glyph-name="Adieresis" unicode="&#xc4;" horiz-adv-x="757" 
d="M215 222l-8 -20l-9 -20l-7 -17l-6 -17l-10 -30l-3 -27q0 -18 12.5 -26.5t42.5 -8.5l53 1v-57h-296v57q48 0 71 6q21 7 37 37l10 22l12 27l207 518h105l227 -531l7 -16l7 -13q11 -21 25 -36t46 -15l36 1v-57h-325v57h57q11 0 20 0.5t17.5 4t10.5 17.5l-2 11l-8 20l-47 112
h-282zM349 569l-111 -286h234zM318 834q17 -17 17 -41q0 -23 -17 -40t-40 -17t-40 17t-17 40q0 24 17 41t40 17q23 1 40 -17zM520 834q17 -17 17 -41q0 -23 -17 -40t-40 -17t-40 17t-17 40q0 24 17 41t40 17q23 1 40 -17z" />
    <glyph glyph-name="Aring" unicode="&#xc5;" horiz-adv-x="757" 
d="M215 222l-8 -20l-9 -20l-7 -17l-6 -17l-10 -30l-3 -27q0 -18 12.5 -26.5t42.5 -8.5l53 1v-57h-296v57q48 0 71 6q21 7 37 37l10 22l12 27l207 518h105l227 -531l7 -16l7 -13q11 -21 25 -36t46 -15l36 1v-57h-325v57h57q11 0 20 0.5t17.5 4t10.5 17.5l-2 11l-8 20l-47 112
h-282zM349 569l-111 -286h234zM449 859q29 -27 29 -69q0 -41 -29 -70q-27 -29 -69 -29q-41 0 -70 29t-29 70t29 69.5t70 28.5q40 1 69 -29zM342 828q-16 -16 -16 -38q0 -23 16 -39t38 -16q23 0 39 16t16 39q0 22 -16 38t-39 16q-21 1 -38 -16z" />
    <glyph glyph-name="AE" unicode="&#xc6;" horiz-adv-x="1111" 
d="M614 371h92q45 0 64.5 19.5t19.5 65.5v41h61v-315h-61v36q0 58 -17 75q-16 19 -68 19l-91 1v-252h201q44 0 71 6t45 26q29 27 45.5 72t16.5 93v7l-1 5v6l56 1v-277h-652v57h44q40 0 53 10.5t13 47.5v172h-219l-97 -159l-5 -8l-4 -7l-10 -16l-4 -17q0 -12 12.5 -17.5
t40.5 -5.5l55 1v-58h-291v58q19 0 33.5 1t24.5 4q19 6 34 23l14 21l19 28l275 418l11 17l5 12v5q0 11 -7 17q-4 2 -9 3t-17 1l-92 1v58h768v-255h-61q0 66 -11 100q-9 36 -33 62l-3 2l-2 2q-17 15 -39 21t-70 6l-210 1v-235zM506 617l-178 -270h178v270z" />
    <glyph glyph-name="Ccedilla" unicode="&#xc7;" horiz-adv-x="722" 
d="M351 -57l15 3q7 0 11 2h4h5q34 0 56.5 -18.5t22.5 -46.5q0 -35 -31 -57.5t-77 -22.5l-20 1q-12 0 -22.5 2t-26 6.5t-30.5 11.5l15 33l34 -12l31 -5h5h4q25 0 39 11q15 9 15 28q0 15 -13 27q-13 10 -33 10h-4l-18 -3l-18 -6l-17 16l43 62q-132 12 -211.5 103.5
t-79.5 229.5q0 159 88.5 261.5t227.5 102.5q46 0 79.5 -7t60.5 -20l37 -21l40 -28l30 68h54v-268h-54q-10 89 -68.5 146t-141.5 57q-104 0 -168 -78t-64 -210q0 -117 61.5 -189.5t163.5 -72.5q85 0 145 54t78 149l67 1q-14 -134 -94.5 -207t-213.5 -73z" />
    <glyph glyph-name="Egrave" unicode="&#xc8;" horiz-adv-x="753" 
d="M251 375h97q41 0 61.5 20t20.5 62v45h58v-315h-58v35q0 50 -18.5 72.5t-61.5 22.5l-99 1v-257h189q132 0 160 53t28 170l61 1v-285h-656v57h44q40 0 53 10.5t13 47.5v436q0 35 -13 46.5t-53 11.5l-44 1v57h645v-249h-59q0 69 -24.5 128t-110.5 59l-233 1v-231zM301 827
l-8 7l-4 6l-1 3v4q0 7 6 12l20 4l87 1l63 -147h-47z" />
    <glyph glyph-name="Eacute" unicode="&#xc9;" horiz-adv-x="753" 
d="M251 375h97q41 0 61.5 20t20.5 62v45h58v-315h-58v35q0 50 -18.5 72.5t-61.5 22.5l-99 1v-257h189q132 0 160 53t28 170l61 1v-285h-656v57h44q40 0 53 10.5t13 47.5v436q0 35 -13 46.5t-53 11.5l-44 1v57h645v-249h-59q0 69 -24.5 128t-110.5 59l-233 1v-231zM288 717
l62 147h88q13 0 18.5 -4t7.5 -13l-1 -4l-4 -9l-8 -8l-117 -109h-46z" />
    <glyph glyph-name="Ecircumflex" unicode="&#xca;" horiz-adv-x="753" 
d="M251 375h97q41 0 61.5 20t20.5 62v45h58v-315h-58v35q0 50 -18.5 72.5t-61.5 22.5l-99 1v-257h189q132 0 160 53t28 170l61 1v-285h-656v57h44q40 0 53 10.5t13 47.5v436q0 35 -13 46.5t-53 11.5l-44 1v57h645v-249h-59q0 69 -24.5 128t-110.5 59l-233 1v-231zM288 723
h-65l109 145h96l101 -145h-88l-72 84z" />
    <glyph glyph-name="Edieresis" unicode="&#xcb;" horiz-adv-x="753" 
d="M251 375h97q41 0 61.5 20t20.5 62v45h58v-315h-58v35q0 50 -18.5 72.5t-61.5 22.5l-99 1v-257h189q132 0 160 53t28 170l61 1v-285h-656v57h44q40 0 53 10.5t13 47.5v436q0 35 -13 46.5t-53 11.5l-44 1v57h645v-249h-59q0 69 -24.5 128t-110.5 59l-233 1v-231zM315 834
q17 -17 17 -41q0 -23 -17 -40t-40 -17t-40 17t-17 40q0 24 17 41t40 17q23 1 40 -17zM517 834q17 -17 17 -41q0 -23 -17 -40t-40 -17t-40 17t-17 40q0 24 17 41t40 17q23 1 40 -17z" />
    <glyph glyph-name="Igrave" unicode="&#xcc;" horiz-adv-x="395" 
d="M34 667h328v-57h-44q-38 0 -52 -11.5t-14 -48.5v-434q0 -37 13 -48.5t53 -11.5l44 1v-57h-328v57h44q40 0 53 10.5t13 47.5v436q0 35 -13 46.5t-53 11.5l-44 1v57zM123 827l-8 7l-4 6l-1 3v4q0 7 6 12l20 4l87 1l63 -147h-47z" />
    <glyph glyph-name="Iacute" unicode="&#xcd;" horiz-adv-x="395" 
d="M34 667h328v-57h-44q-38 0 -52 -11.5t-14 -48.5v-434q0 -37 13 -48.5t53 -11.5l44 1v-57h-328v57h44q40 0 53 10.5t13 47.5v436q0 35 -13 46.5t-53 11.5l-44 1v57zM110 717l62 147h88q13 0 18.5 -4t7.5 -13l-1 -4l-4 -9l-8 -8l-117 -109h-46z" />
    <glyph glyph-name="Icircumflex" unicode="&#xce;" horiz-adv-x="395" 
d="M34 667h328v-57h-44q-38 0 -52 -11.5t-14 -48.5v-434q0 -37 13 -48.5t53 -11.5l44 1v-57h-328v57h44q40 0 53 10.5t13 47.5v436q0 35 -13 46.5t-53 11.5l-44 1v57zM110 723h-65l109 145h96l101 -145h-88l-72 84z" />
    <glyph glyph-name="Idieresis" unicode="&#xcf;" horiz-adv-x="395" 
d="M34 667h328v-57h-44q-38 0 -52 -11.5t-14 -48.5v-434q0 -37 13 -48.5t53 -11.5l44 1v-57h-328v57h44q40 0 53 10.5t13 47.5v436q0 35 -13 46.5t-53 11.5l-44 1v57zM137 834q17 -17 17 -41q0 -23 -17 -40t-40 -17t-40 17t-17 40q0 24 17 41t40 17q23 1 40 -17zM339 834
q17 -17 17 -41q0 -23 -17 -40t-40 -17t-40 17t-17 40q0 24 17 41t40 17q23 1 40 -17z" />
    <glyph glyph-name="Eth" unicode="&#xd0;" horiz-adv-x="788" 
d="M33 667h398q138 0 222.5 -89t84.5 -234q0 -160 -84.5 -252t-230.5 -92h-390v57h38q40 0 53 10.5t13 47.5v201h-104v61h104v174q0 35 -13 46.5t-53 11.5l-38 1v57zM403 61q105 0 159.5 71.5t54.5 211.5q0 127 -58 194t-167 67l-147 1v-229h147v-61h-147v-255h158z" />
    <glyph glyph-name="Ntilde" unicode="&#xd1;" horiz-adv-x="823" 
d="M632 167v384q0 40 -14.5 49t-95.5 9v58h274v-57h-30q-38 0 -52 -11.5t-14 -48.5v-550h-81l-413 553v-437q0 -37 12.5 -48.5t53.5 -11.5l44 1v-57h-283v57h38q40 0 53 10.5t13 47.5v436q0 35 -13 46.5t-53 11.5l-38 1v57h228zM588 851q0 -52 -27.5 -86.5t-67.5 -34.5
q-20 0 -44 6l-44 13l-22 7l-22 6l-21 4l-22 2q-17 0 -23 -8.5t-9 -36.5l-54 1q0 55 24.5 87t68.5 32q21 0 44 -6l44 -11l44 -13q14 -3 21 -4t23 -1t26 11t10 31z" />
    <glyph glyph-name="Ograve" unicode="&#xd2;" 
 />
    <glyph glyph-name="Oacute" unicode="&#xd3;" horiz-adv-x="803" 
d="M513 668q53 -12 93 -39q66 -41 107 -121q20 -39 30 -79t10 -85q0 -168 -93.5 -264.5t-264.5 -96.5q-154 0 -249.5 95t-95.5 248q0 159 93.5 257.5t254.5 98.5h11q53 0 104 -14zM232 543q-29 -37 -45 -91t-16 -121q0 -77 14 -125.5t46 -86.5q29 -34 75 -56q46 -19 93 -19
q112 0 173 78t61 221q0 125 -64 201t-168 76q-106 1 -169 -77zM314 716l62 147h88q13 0 18.5 -4t7.5 -13l-1 -4l-4 -9l-8 -8l-117 -109h-46z" />
    <glyph glyph-name="Ocircumflex" unicode="&#xd4;" horiz-adv-x="803" 
d="M513 668q53 -12 93 -39q66 -41 107 -121q20 -39 30 -79t10 -85q0 -168 -93.5 -264.5t-264.5 -96.5q-154 0 -249.5 95t-95.5 248q0 159 93.5 257.5t254.5 98.5h11q53 0 104 -14zM232 543q-29 -37 -45 -91t-16 -121q0 -77 14 -125.5t46 -86.5q29 -34 75 -56q46 -19 93 -19
q112 0 173 78t61 221q0 125 -64 201t-168 76q-106 1 -169 -77zM314 723h-65l109 145h96l101 -145h-88l-72 84z" />
    <glyph glyph-name="Otilde" unicode="&#xd5;" horiz-adv-x="803" 
d="M513 668q53 -12 93 -39q66 -41 107 -121q20 -39 30 -79t10 -85q0 -168 -93.5 -264.5t-264.5 -96.5q-154 0 -249.5 95t-95.5 248q0 159 93.5 257.5t254.5 98.5h11q53 0 104 -14zM232 543q-29 -37 -45 -91t-16 -121q0 -77 14 -125.5t46 -86.5q29 -34 75 -56q46 -19 93 -19
q112 0 173 78t61 221q0 125 -64 201t-168 76q-106 1 -169 -77zM580 850q0 -52 -27.5 -86.5t-67.5 -34.5q-20 0 -44 6l-44 13l-22 7l-22 6l-21 4l-22 2q-17 0 -23 -8.5t-9 -36.5l-54 1q0 55 24.5 87t68.5 32q21 0 44 -6l44 -11l44 -13q14 -3 21 -4t23 -1t26 11t10 31z" />
    <glyph glyph-name="Odieresis" unicode="&#xd6;" horiz-adv-x="803" 
d="M513 668q53 -12 93 -39q66 -41 107 -121q20 -39 30 -79t10 -85q0 -168 -93.5 -264.5t-264.5 -96.5q-154 0 -249.5 95t-95.5 248q0 159 93.5 257.5t254.5 98.5h11q53 0 104 -14zM232 543q-29 -37 -45 -91t-16 -121q0 -77 14 -125.5t46 -86.5q29 -34 75 -56q46 -19 93 -19
q112 0 173 78t61 221q0 125 -64 201t-168 76q-106 1 -169 -77zM341 834q17 -17 17 -41q0 -23 -17 -40t-40 -17t-40 17t-17 40q0 24 17 41t40 17q23 1 40 -17zM543 834q17 -17 17 -41q0 -23 -17 -40t-40 -17t-40 17t-17 40q0 24 17 41t40 17q23 1 40 -17z" />
    <glyph glyph-name="multiply" unicode="&#xd7;" 
 />
    <glyph glyph-name="Oslash" unicode="&#xd8;" horiz-adv-x="804" 
d="M694 660l37 -37l-55 -55q37 -48 57.5 -106.5t20.5 -119.5q0 -165 -95 -262t-258 -97q-62 0 -122.5 18t-111.5 58l-55 -55l-36 37l55 55q-20 25 -35.5 51.5t-26.5 56.5q-19 60 -19 127q0 91 39 172.5t107 125.5q40 26 93 39.5t113 13.5q66 0 126.5 -18t111.5 -59zM307 64
q45 -20 93 -20q111 0 172 77.5t61 218.5q0 49 -8 84q-6 40 -23 69l-371 -370q30 -36 76 -59zM557 556l-16 15q-29 26 -62 37.5t-76 11.5q-78 0 -137.5 -45.5t-80.5 -123.5l-11 -63l-3 -69q0 -44 6 -77.5t21 -67.5l1 -3l2 -3l372 371z" />
    <glyph glyph-name="Ugrave" unicode="&#xd9;" horiz-adv-x="776" 
d="M16 667h320v-56h-38q-39 0 -52.5 -12t-13.5 -49v-340q0 -77 48 -114.5t122 -37.5q100 0 142 49.5t42 144.5v299q0 35 -12.5 47t-53.5 12l-44 1v56h283v-56h-38q-41 0 -53.5 -12t-12.5 -49v-340q0 -122 -78 -174.5t-190 -52.5q-117 0 -192 52.5t-75 179.5v336
q0 35 -12.5 47t-53.5 12l-38 1v56zM314 826l-8 7l-4 6l-1 3v4q0 7 6 12l20 4l87 1l63 -147h-47z" />
    <glyph glyph-name="Uacute" unicode="&#xda;" horiz-adv-x="776" 
d="M16 667h320v-56h-38q-39 0 -52.5 -12t-13.5 -49v-340q0 -77 48 -114.5t122 -37.5q100 0 142 49.5t42 144.5v299q0 35 -12.5 47t-53.5 12l-44 1v56h283v-56h-38q-41 0 -53.5 -12t-12.5 -49v-340q0 -122 -78 -174.5t-190 -52.5q-117 0 -192 52.5t-75 179.5v336
q0 35 -12.5 47t-53.5 12l-38 1v56zM301 716l62 147h88q13 0 18.5 -4t7.5 -13l-1 -4l-4 -9l-8 -8l-117 -109h-46z" />
    <glyph glyph-name="Ucircumflex" unicode="&#xdb;" horiz-adv-x="776" 
d="M16 667h320v-56h-38q-39 0 -52.5 -12t-13.5 -49v-340q0 -77 48 -114.5t122 -37.5q100 0 142 49.5t42 144.5v299q0 35 -12.5 47t-53.5 12l-44 1v56h283v-56h-38q-41 0 -53.5 -12t-12.5 -49v-340q0 -122 -78 -174.5t-190 -52.5q-117 0 -192 52.5t-75 179.5v336
q0 35 -12.5 47t-53.5 12l-38 1v56zM301 723h-65l109 145h96l101 -145h-88l-72 84z" />
    <glyph glyph-name="Udieresis" unicode="&#xdc;" horiz-adv-x="776" 
d="M16 667h320v-56h-38q-39 0 -52.5 -12t-13.5 -49v-340q0 -77 48 -114.5t122 -37.5q100 0 142 49.5t42 144.5v299q0 35 -12.5 47t-53.5 12l-44 1v56h283v-56h-38q-41 0 -53.5 -12t-12.5 -49v-340q0 -122 -78 -174.5t-190 -52.5q-117 0 -192 52.5t-75 179.5v336
q0 35 -12.5 47t-53.5 12l-38 1v56zM328 834q17 -17 17 -41q0 -23 -17 -40t-40 -17t-40 17t-17 40q0 24 17 41t40 17q23 1 40 -17zM530 834q17 -17 17 -41q0 -23 -17 -40t-40 -17t-40 17t-17 40q0 24 17 41t40 17q23 1 40 -17z" />
    <glyph glyph-name="Yacute" unicode="&#xdd;" 
 />
    <glyph glyph-name="Thorn" unicode="&#xde;" horiz-adv-x="669" 
d="M444 525q97 0 161 -37t64 -148q0 -92 -51.5 -135.5t-167.5 -43.5l-199 1v-46q0 -37 12.5 -48.5t52.5 -11.5l51 1v-57h-334v57h44q40 0 53 10.5t13 47.5v436q0 35 -13 46.5t-53 11.5l-44 1v57h328v-57h-44q-42 0 -54.5 -13t-12.5 -54v-6l1 -4v-5v-4zM414 223
q71 0 104.5 30t33.5 91q0 58 -34 88.5t-105 30.5l-162 1v-241h163z" />
    <glyph glyph-name="germandbls" unicode="&#xdf;" horiz-adv-x="601" 
d="M322 162v-46q0 -35 15 -56q16 -19 43 -19q36 0 53 36q16 38 16 128q0 71 -35 122t-115 51h-8h-6l-7 -2l-8 -1v58q7 0 11 -2h9h5h6q58 0 84.5 23.5t26.5 73.5q0 42 -27 67.5t-76 25.5q-51 0 -74.5 -31t-23.5 -99v-491h-184v53h29q36 0 47 9q10 12 10 53v377q0 53 10.5 82
t36.5 53q23 20 53 30.5t68 15.5l17 1l16 1q93 0 146 -38t53 -104q0 -49 -25 -77.5t-85 -48.5q17 -3 30.5 -7t23.5 -10q19 -9 37 -28l5 -6l6 -7q24 -30 36.5 -72t12.5 -87q0 -93 -47 -150t-121 -57q-82 0 -100 54q-16 58 -16 121v3z" />
    <glyph glyph-name="agrave" unicode="&#xe0;" horiz-adv-x="570" 
d="M563 197v-41q0 -64 -14.5 -116t-101.5 -52q-44 0 -70 23q-24 24 -31 71l-3 -4l-2 -4q-34 -48 -71.5 -69.5t-92.5 -21.5q-63 0 -102 33.5t-39 92.5q0 70 38.5 103.5t140.5 51.5l21 3l19 3q59 10 76.5 25t17.5 49q0 42 -28 64t-84 22q-32 0 -56 -8q-24 -6 -41 -23
q20 -3 30.5 -15t10.5 -31q0 -25 -18 -41.5t-45 -16.5q-24 0 -41.5 18.5t-17.5 46.5q0 55 50 88.5t137 33.5q51 0 86 -6.5t60 -22.5q28 -16 40 -40.5t12 -70.5v-238q0 -26 7.5 -38.5t23.5 -12.5q22 0 29 19q3 10 5 30.5t2 52.5v42h52zM330 243l-13 -6l-5 -2l-5 -2l-15 -5
l-19 -6l-55 -18l-37 -15q-26 -12 -33 -28t-7 -40q0 -30 20 -50q21 -18 57 -18q57 0 92.5 37t35.5 97v65zM190 626l-8 7l-4 6l-1 3v4q0 7 6 12l20 4l87 1l63 -147h-47z" />
    <glyph glyph-name="aacute" unicode="&#xe1;" horiz-adv-x="570" 
d="M563 197v-41q0 -64 -14.5 -116t-101.5 -52q-44 0 -70 23q-24 24 -31 71l-3 -4l-2 -4q-34 -48 -71.5 -69.5t-92.5 -21.5q-63 0 -102 33.5t-39 92.5q0 70 38.5 103.5t140.5 51.5l21 3l19 3q59 10 76.5 25t17.5 49q0 42 -28 64t-84 22q-32 0 -56 -8q-24 -6 -41 -23
q20 -3 30.5 -15t10.5 -31q0 -25 -18 -41.5t-45 -16.5q-24 0 -41.5 18.5t-17.5 46.5q0 55 50 88.5t137 33.5q51 0 86 -6.5t60 -22.5q28 -16 40 -40.5t12 -70.5v-238q0 -26 7.5 -38.5t23.5 -12.5q22 0 29 19q3 10 5 30.5t2 52.5v42h52zM330 243l-13 -6l-5 -2l-5 -2l-15 -5
l-19 -6l-55 -18l-37 -15q-26 -12 -33 -28t-7 -40q0 -30 20 -50q21 -18 57 -18q57 0 92.5 37t35.5 97v65zM177 516l62 147h88q13 0 18.5 -4t7.5 -13l-1 -4l-4 -9l-8 -8l-117 -109h-46z" />
    <glyph glyph-name="acircumflex" unicode="&#xe2;" horiz-adv-x="570" 
d="M563 197v-41q0 -64 -14.5 -116t-101.5 -52q-44 0 -70 23q-24 24 -31 71l-3 -4l-2 -4q-34 -48 -71.5 -69.5t-92.5 -21.5q-63 0 -102 33.5t-39 92.5q0 70 38.5 103.5t140.5 51.5l21 3l19 3q59 10 76.5 25t17.5 49q0 42 -28 64t-84 22q-32 0 -56 -8q-24 -6 -41 -23
q20 -3 30.5 -15t10.5 -31q0 -25 -18 -41.5t-45 -16.5q-24 0 -41.5 18.5t-17.5 46.5q0 55 50 88.5t137 33.5q51 0 86 -6.5t60 -22.5q28 -16 40 -40.5t12 -70.5v-238q0 -26 7.5 -38.5t23.5 -12.5q22 0 29 19q3 10 5 30.5t2 52.5v42h52zM330 243l-13 -6l-5 -2l-5 -2l-15 -5
l-19 -6l-55 -18l-37 -15q-26 -12 -33 -28t-7 -40q0 -30 20 -50q21 -18 57 -18q57 0 92.5 37t35.5 97v65zM177 523h-65l109 145h96l101 -145h-88l-72 84z" />
    <glyph glyph-name="atilde" unicode="&#xe3;" horiz-adv-x="570" 
d="M563 197v-41q0 -64 -14.5 -116t-101.5 -52q-44 0 -70 23q-24 24 -31 71l-3 -4l-2 -4q-34 -48 -71.5 -69.5t-92.5 -21.5q-63 0 -102 33.5t-39 92.5q0 70 38.5 103.5t140.5 51.5l21 3l19 3q59 10 76.5 25t17.5 49q0 42 -28 64t-84 22q-32 0 -56 -8q-24 -6 -41 -23
q20 -3 30.5 -15t10.5 -31q0 -25 -18 -41.5t-45 -16.5q-24 0 -41.5 18.5t-17.5 46.5q0 55 50 88.5t137 33.5q51 0 86 -6.5t60 -22.5q28 -16 40 -40.5t12 -70.5v-238q0 -26 7.5 -38.5t23.5 -12.5q22 0 29 19q3 10 5 30.5t2 52.5v42h52zM330 243l-13 -6l-5 -2l-5 -2l-15 -5
l-19 -6l-55 -18l-37 -15q-26 -12 -33 -28t-7 -40q0 -30 20 -50q21 -18 57 -18q57 0 92.5 37t35.5 97v65zM443 650q0 -52 -27.5 -86.5t-67.5 -34.5q-20 0 -44 6l-44 13l-22 7l-22 6l-21 4l-22 2q-17 0 -23 -8.5t-9 -36.5l-54 1q0 55 24.5 87t68.5 32q21 0 44 -6l44 -11
l44 -13q14 -3 21 -4t23 -1t26 11t10 31z" />
    <glyph glyph-name="adieresis" unicode="&#xe4;" horiz-adv-x="570" 
d="M563 197v-41q0 -64 -14.5 -116t-101.5 -52q-44 0 -70 23q-24 24 -31 71l-3 -4l-2 -4q-34 -48 -71.5 -69.5t-92.5 -21.5q-63 0 -102 33.5t-39 92.5q0 70 38.5 103.5t140.5 51.5l21 3l19 3q59 10 76.5 25t17.5 49q0 42 -28 64t-84 22q-32 0 -56 -8q-24 -6 -41 -23
q20 -3 30.5 -15t10.5 -31q0 -25 -18 -41.5t-45 -16.5q-24 0 -41.5 18.5t-17.5 46.5q0 55 50 88.5t137 33.5q51 0 86 -6.5t60 -22.5q28 -16 40 -40.5t12 -70.5v-238q0 -26 7.5 -38.5t23.5 -12.5q22 0 29 19q3 10 5 30.5t2 52.5v42h52zM330 243l-13 -6l-5 -2l-5 -2l-15 -5
l-19 -6l-55 -18l-37 -15q-26 -12 -33 -28t-7 -40q0 -30 20 -50q21 -18 57 -18q57 0 92.5 37t35.5 97v65zM203 641q17 -17 17 -41q0 -23 -17 -40t-40 -17t-40 17t-17 40q0 24 17 41t40 17q23 1 40 -17zM405 641q17 -17 17 -41q0 -23 -17 -40t-40 -17t-40 17t-17 40
q0 24 17 41t40 17q23 1 40 -17z" />
    <glyph glyph-name="aring" unicode="&#xe5;" horiz-adv-x="570" 
d="M563 197v-41q0 -64 -14.5 -116t-101.5 -52q-44 0 -70 23q-24 24 -31 71l-3 -4l-2 -4q-34 -48 -71.5 -69.5t-92.5 -21.5q-63 0 -102 33.5t-39 92.5q0 70 38.5 103.5t140.5 51.5l21 3l19 3q59 10 76.5 25t17.5 49q0 42 -28 64t-84 22q-32 0 -56 -8q-24 -6 -41 -23
q20 -3 30.5 -15t10.5 -31q0 -25 -18 -41.5t-45 -16.5q-24 0 -41.5 18.5t-17.5 46.5q0 55 50 88.5t137 33.5q51 0 86 -6.5t60 -22.5q28 -16 40 -40.5t12 -70.5v-238q0 -26 7.5 -38.5t23.5 -12.5q22 0 29 19q3 10 5 30.5t2 52.5v42h52zM330 243l-13 -6l-5 -2l-5 -2l-15 -5
l-19 -6l-55 -18l-37 -15q-26 -12 -33 -28t-7 -40q0 -30 20 -50q21 -18 57 -18q57 0 92.5 37t35.5 97v65zM335 669q29 -27 29 -69q0 -41 -29 -70q-27 -29 -69 -29q-41 0 -70 29t-29 70t29 69.5t70 28.5q40 1 69 -29zM228 638q-16 -16 -16 -38q0 -23 16 -39t38 -16q23 0 39 16
t16 39q0 22 -16 38t-39 16q-21 1 -38 -16z" />
    <glyph glyph-name="ae" unicode="&#xe6;" horiz-adv-x="846" 
d="M437 228q0 -74 36 -127.5t118 -53.5q53 0 90 32.5t54 91.5l63 1q-15 -87 -78 -138t-151 -51q-32 0 -60 6t-55 20q-52 26 -84 80q-33 -51 -82 -78.5t-109 -27.5q-59 0 -100.5 36t-41.5 88q0 80 48 108t111 40l18 3l19 3q48 8 84.5 20.5t36.5 53.5q0 44 -29.5 66t-87.5 22
q-29 0 -45 -5q-17 -3 -35 -15l-5 -3l-4 -3q15 -7 26 -21q8 -11 10 -28q0 -25 -17.5 -41.5t-42.5 -16.5q-27 0 -44.5 18.5t-17.5 47.5q0 54 52.5 89.5t132.5 35.5q55 0 98 -15t69 -44q34 31 72 45t84 14q110 0 171.5 -62t61.5 -172v-8l-1 -12zM319 230l-25 -10l-13 -4l-13 -3
q-5 -1 -6 -2l-6 -1q-66 -15 -90 -33.5t-24 -59.5q0 -27 22.5 -45.5t59.5 -18.5q56 0 91 36.5t35 97.5v59zM660 386q-34 37 -93 37q-54 0 -86.5 -34.5t-41.5 -104.5l256 1q0 65 -35 101z" />
    <glyph glyph-name="ccedilla" unicode="&#xe7;" horiz-adv-x="544" 
d="M262 -57l15 3q7 0 11 2h4h5q34 0 56.5 -18.5t22.5 -47.5q0 -35 -31 -57t-77 -22l-20 1q-12 0 -22.5 2t-26 6.5t-30.5 11.5l15 33l34 -12l31 -5h5h4q25 0 39 11q15 9 15 28q0 15 -13 27q-13 10 -33 10h-4h-4l-14 -3l-17 -6l-18 16l43 62q-96 9 -150.5 74.5t-54.5 162.5
q0 121 64.5 190.5t179.5 69.5q89 0 146 -37t57 -97q0 -37 -19.5 -59.5t-53.5 -22.5q-26 0 -45 18t-19 46q0 17 9 30.5t22 16.5h3l5 1l7 1l3 6q0 9 -18 20q-11 5 -21.5 8.5t-17.5 5.5l-27 4l-20 2q-68 0 -108.5 -51.5t-40.5 -143.5q0 -84 41 -133t114 -49q50 0 88 39t50 104
l58 1q-12 -94 -64.5 -151.5t-150.5 -57.5z" />
    <glyph glyph-name="egrave" unicode="&#xe8;" horiz-adv-x="558" 
d="M154 229q0 -70 32.5 -124.5t115.5 -54.5q53 0 92.5 32.5t54.5 90.5l64 1q-18 -91 -78.5 -141t-146.5 -50q-108 0 -174.5 66.5t-66.5 176.5q0 119 64.5 187.5t174.5 68.5q82 0 141 -39t77 -105l4 -17l3 -13l3 -31l1 -49zM374 389q-34 37 -90 37q-51 0 -89 -39
q-33 -36 -41 -102l255 1q0 65 -35 103zM205 626l-8 7l-4 6l-1 3v4q0 7 6 12l20 4l87 1l63 -147h-47z" />
    <glyph glyph-name="eacute" unicode="&#xe9;" horiz-adv-x="558" 
d="M154 229q0 -70 32.5 -124.5t115.5 -54.5q53 0 92.5 32.5t54.5 90.5l64 1q-18 -91 -78.5 -141t-146.5 -50q-108 0 -174.5 66.5t-66.5 176.5q0 119 64.5 187.5t174.5 68.5q82 0 141 -39t77 -105l4 -17l3 -13l3 -31l1 -49zM374 389q-34 37 -90 37q-51 0 -89 -39
q-33 -36 -41 -102l255 1q0 65 -35 103zM192 516l62 147h88q13 0 18.5 -4t7.5 -13l-1 -4l-4 -9l-8 -8l-117 -109h-46z" />
    <glyph glyph-name="ecircumflex" unicode="&#xea;" horiz-adv-x="558" 
d="M154 229q0 -70 32.5 -124.5t115.5 -54.5q53 0 92.5 32.5t54.5 90.5l64 1q-18 -91 -78.5 -141t-146.5 -50q-108 0 -174.5 66.5t-66.5 176.5q0 119 64.5 187.5t174.5 68.5q82 0 141 -39t77 -105l4 -17l3 -13l3 -31l1 -49zM374 389q-34 37 -90 37q-51 0 -89 -39
q-33 -36 -41 -102l255 1q0 65 -35 103zM192 523h-65l109 145h96l101 -145h-88l-72 84z" />
    <glyph glyph-name="edieresis" unicode="&#xeb;" horiz-adv-x="558" 
d="M154 229q0 -70 32.5 -124.5t115.5 -54.5q53 0 92.5 32.5t54.5 90.5l64 1q-18 -91 -78.5 -141t-146.5 -50q-108 0 -174.5 66.5t-66.5 176.5q0 119 64.5 187.5t174.5 68.5q82 0 141 -39t77 -105l4 -17l3 -13l3 -31l1 -49zM374 389q-34 37 -90 37q-51 0 -89 -39
q-33 -36 -41 -102l255 1q0 65 -35 103zM218 641q17 -17 17 -41q0 -23 -17 -40t-40 -17t-40 17t-17 40q0 24 17 41t40 17q23 1 40 -17zM420 641q17 -17 17 -41q0 -23 -17 -40t-40 -17t-40 17t-17 40q0 24 17 41t40 17q23 1 40 -17z" />
    <glyph glyph-name="igrave" unicode="&#xec;" horiz-adv-x="346" 
d="M227 116q0 -41 9 -52.5t47 -11.5l36 1v-53h-289v53h42q37 0 47 11t10 51v236q0 39 -9.5 50t-47.5 11l-42 1v54h197v-351zM78 627l-8 7l-4 6l-1 3v4q0 7 6 12l20 4l87 1l63 -147h-47z" />
    <glyph glyph-name="iacute" unicode="&#xed;" horiz-adv-x="346" 
d="M227 116q0 -41 9 -52.5t47 -11.5l36 1v-53h-289v53h42q37 0 47 11t10 51v236q0 39 -9.5 50t-47.5 11l-42 1v54h197v-351zM86 517l62 147h88q13 0 18.5 -4t7.5 -13l-1 -4l-4 -9l-8 -8l-117 -109h-46z" />
    <glyph glyph-name="icircumflex" unicode="&#xee;" horiz-adv-x="346" 
d="M227 116q0 -41 9 -52.5t47 -11.5l36 1v-53h-289v53h42q37 0 47 11t10 51v236q0 39 -9.5 50t-47.5 11l-42 1v54h197v-351zM72 523h-65l109 145h96l101 -145h-88l-72 84z" />
    <glyph glyph-name="idieresis" unicode="&#xef;" horiz-adv-x="348" 
d="M227 116q0 -41 9 -52.5t47 -11.5l36 1v-53h-289v53h42q37 0 47 11t10 51v236q0 39 -9.5 50t-47.5 11l-42 1v54h197v-351zM95 641q17 -17 17 -41q0 -23 -17 -40t-40 -17t-39.5 17.5t-16.5 39.5q0 24 16.5 41t39.5 17q23 1 40 -17zM297 641q17 -17 17 -41q0 -23 -17 -40
t-40 -17t-40 17t-17 40q0 24 17 41t40 17q23 1 40 -17z" />
    <glyph glyph-name="eth" unicode="&#xf0;" horiz-adv-x="598" 
d="M312 564l-87 -32l-14 38l82 33l-31 63h57l32 -46l80 30l15 -38l-70 -28l65 -97l12 -20l13 -19q32 -48 58.5 -100t26.5 -112q0 -116 -68 -184.5t-183 -68.5q-108 0 -181 65.5t-73 177.5q0 60 16 105.5t52 81.5q69 69 185 69h12l11 -1l14 -1l18 -3zM194 371
q-38 -52 -38 -142q0 -94 36.5 -141t109.5 -47q64 0 101.5 48.5t37.5 134.5q0 96 -36.5 147.5t-107.5 51.5q-64 1 -103 -52z" />
    <glyph glyph-name="ntilde" unicode="&#xf1;" horiz-adv-x="661" 
d="M217 391l21 24q10 14 20 21q27 26 59 36t71 10q74 0 117.5 -39.5t43.5 -114.5v-212q0 -41 9 -52.5t47 -11.5l30 1v-53h-273v53h29q37 0 47 11t10 51v193q0 54 -23 80t-71 26q-58 0 -95.5 -32.5t-37.5 -85.5v-180q0 -41 9 -52.5t47 -11.5l30 1v-53h-277v53h36q37 0 47 11
t10 51v236q0 39 -9.5 50t-47.5 11l-36 1v54h191zM508 651q0 -52 -27.5 -86.5t-67.5 -34.5q-20 0 -44 6l-44 13l-22 7l-22 6l-21 4l-22 2q-17 0 -23 -8.5t-9 -36.5l-54 1q0 55 24.5 87t68.5 32q21 0 44 -6l44 -11l44 -13q14 -3 21 -4t23 -1t26 11t10 31z" />
    <glyph glyph-name="ograve" unicode="&#xf2;" horiz-adv-x="598" 
d="M480 413q71 -68 71 -177q0 -116 -68 -184.5t-183 -68.5q-108 0 -181 65.5t-73 177.5q0 60 16 105.5t52 81.5q69 69 185 69q111 1 181 -69zM194 371q-38 -52 -38 -142q0 -94 36.5 -141t109.5 -47q64 0 101.5 48.5t37.5 134.5q0 96 -36.5 147.5t-107.5 51.5q-64 1 -103 -52
zM224 626l-8 7l-4 6l-1 3v4q0 7 6 12l20 4l87 1l63 -147h-47z" />
    <glyph glyph-name="oacute" unicode="&#xf3;" horiz-adv-x="598" 
d="M480 413q71 -68 71 -177q0 -116 -68 -184.5t-183 -68.5q-108 0 -181 65.5t-73 177.5q0 60 16 105.5t52 81.5q69 69 185 69q111 1 181 -69zM194 371q-38 -52 -38 -142q0 -94 36.5 -141t109.5 -47q64 0 101.5 48.5t37.5 134.5q0 96 -36.5 147.5t-107.5 51.5q-64 1 -103 -52
zM211 516l62 147h88q13 0 18.5 -4t7.5 -13l-1 -4l-4 -9l-8 -8l-117 -109h-46z" />
    <glyph glyph-name="ocircumflex" unicode="&#xf4;" horiz-adv-x="598" 
d="M480 413q71 -68 71 -177q0 -116 -68 -184.5t-183 -68.5q-108 0 -181 65.5t-73 177.5q0 60 16 105.5t52 81.5q69 69 185 69q111 1 181 -69zM194 371q-38 -52 -38 -142q0 -94 36.5 -141t109.5 -47q64 0 101.5 48.5t37.5 134.5q0 96 -36.5 147.5t-107.5 51.5q-64 1 -103 -52
zM211 523h-65l109 145h96l101 -145h-88l-72 84z" />
    <glyph glyph-name="otilde" unicode="&#xf5;" horiz-adv-x="598" 
d="M480 413q71 -68 71 -177q0 -116 -68 -184.5t-183 -68.5q-108 0 -181 65.5t-73 177.5q0 60 16 105.5t52 81.5q69 69 185 69q111 1 181 -69zM194 371q-38 -52 -38 -142q0 -94 36.5 -141t109.5 -47q64 0 101.5 48.5t37.5 134.5q0 96 -36.5 147.5t-107.5 51.5q-64 1 -103 -52
zM477 650q0 -52 -27.5 -86.5t-67.5 -34.5q-20 0 -44 6l-44 13l-22 7l-22 6l-21 4l-22 2q-17 0 -23 -8.5t-9 -36.5l-54 1q0 55 24.5 87t68.5 32q21 0 44 -6l44 -11l44 -13q14 -3 21 -4t23 -1t26 11t10 31z" />
    <glyph glyph-name="odieresis" unicode="&#xf6;" horiz-adv-x="598" 
d="M480 413q71 -68 71 -177q0 -116 -68 -184.5t-183 -68.5q-108 0 -181 65.5t-73 177.5q0 60 16 105.5t52 81.5q69 69 185 69q111 1 181 -69zM194 371q-38 -52 -38 -142q0 -94 36.5 -141t109.5 -47q64 0 101.5 48.5t37.5 134.5q0 96 -36.5 147.5t-107.5 51.5q-64 1 -103 -52
zM237 641q17 -17 17 -41q0 -23 -17 -40t-40 -17t-40 17t-17 40q0 24 17 41t40 17q23 1 40 -17zM439 641q17 -17 17 -41q0 -23 -17 -40t-40 -17t-40 17t-17 40q0 24 17 41t40 17q23 1 40 -17z" />
    <glyph glyph-name="divide" unicode="&#xf7;" 
 />
    <glyph glyph-name="oslash" unicode="&#xf8;" horiz-adv-x="597" 
d="M511 489l39 -38l-54 -55l4 -7l5 -6q22 -32 33.5 -68t11.5 -76q0 -60 -16 -105.5t-52 -81.5q-66 -69 -183 -69q-44 0 -87.5 12.5t-72.5 34.5l-59 -58l-39 37l59 60q-19 24 -33 57q-12 33 -18 67l-3 19v19q0 114 68.5 182.5t182.5 68.5q14 0 31.5 -0.5t40.5 -7.5
q31 -6 62 -25l13 -8l13 -9zM202 79l8 -7q20 -17 43 -24t46 -7q67 0 104 47.5t37 132.5v15q0 9 -2 25q0 20 -5 35l-3 13l-4 14l-232 -235zM357 410q-28 13 -60 13q-65 0 -103 -51.5t-38 -142.5l3 -48l8 -44l234 238q-16 22 -44 35z" />
    <glyph glyph-name="ugrave" unicode="&#xf9;" horiz-adv-x="652" 
d="M441 78q-27 -50 -68 -73q-19 -10 -43.5 -16t-53.5 -6q-90 0 -123.5 39.5t-33.5 124.5v205q0 39 -9.5 50t-47.5 11l-36 1v53h191v-305q0 -60 22.5 -85.5t77.5 -25.5q52 0 88 36t36 88v177q0 39 -9.5 50t-47.5 11l-36 1v53h191v-351q0 -42 9 -54q10 -10 47 -10l30 1v-53
h-184v78zM250 626l-8 7l-4 6l-1 3v4q0 7 6 12l20 4l87 1l63 -147h-47z" />
    <glyph glyph-name="uacute" unicode="&#xfa;" horiz-adv-x="652" 
d="M441 78q-27 -50 -68 -73q-19 -10 -43.5 -16t-53.5 -6q-90 0 -123.5 39.5t-33.5 124.5v205q0 39 -9.5 50t-47.5 11l-36 1v53h191v-305q0 -60 22.5 -85.5t77.5 -25.5q52 0 88 36t36 88v177q0 39 -9.5 50t-47.5 11l-36 1v53h191v-351q0 -42 9 -54q10 -10 47 -10l30 1v-53
h-184v78zM237 516l62 147h88q13 0 18.5 -4t7.5 -13l-1 -4l-4 -9l-8 -8l-117 -109h-46z" />
    <glyph glyph-name="ucircumflex" unicode="&#xfb;" horiz-adv-x="652" 
d="M441 78q-27 -50 -68 -73q-19 -10 -43.5 -16t-53.5 -6q-90 0 -123.5 39.5t-33.5 124.5v205q0 39 -9.5 50t-47.5 11l-36 1v53h191v-305q0 -60 22.5 -85.5t77.5 -25.5q52 0 88 36t36 88v177q0 39 -9.5 50t-47.5 11l-36 1v53h191v-351q0 -42 9 -54q10 -10 47 -10l30 1v-53
h-184v78zM237 523h-65l109 145h96l101 -145h-88l-72 84z" />
    <glyph glyph-name="udieresis" unicode="&#xfc;" horiz-adv-x="652" 
d="M441 78q-27 -50 -68 -73q-19 -10 -43.5 -16t-53.5 -6q-90 0 -123.5 39.5t-33.5 124.5v205q0 39 -9.5 50t-47.5 11l-36 1v53h191v-305q0 -60 22.5 -85.5t77.5 -25.5q52 0 88 36t36 88v177q0 39 -9.5 50t-47.5 11l-36 1v53h191v-351q0 -42 9 -54q10 -10 47 -10l30 1v-53
h-184v78zM263 641q17 -17 17 -41q0 -23 -17 -40t-40 -17t-40 17t-17 40q0 24 17 41t40 17q23 1 40 -17zM465 641q17 -17 17 -41q0 -23 -17 -40t-40 -17t-40 17t-17 40q0 24 17 41t40 17q23 1 40 -17z" />
    <glyph glyph-name="yacute" unicode="&#xfd;" 
 />
    <glyph glyph-name="thorn" unicode="&#xfe;" horiz-adv-x="628" 
d="M217 -87q0 -40 9 -51.5t47 -11.5h46v-53h-293v53h36q37 0 47 11.5t10 51.5v638q0 40 -9.5 51t-47.5 11l-36 1v53h191v-280l33 38l29 28q19 15 46 23q13 3 26 5t30 2q88 0 144 -66.5t56 -170.5q0 -115 -58.5 -188.5t-147.5 -73.5q-48 0 -82.5 16.5t-66.5 57.5l-5 6l-4 7
v-158zM249 360q-37 -51 -37 -130q0 -76 36.5 -126t92.5 -50q64 0 99 48.5t35 139.5q0 81 -33.5 125t-96.5 44q-57 2 -96 -51z" />
    <glyph glyph-name="ydieresis" unicode="&#xff;" horiz-adv-x="548" 
d="M408 357l6 16l2 12v2q0 14 -8 19q-6 6 -26 6l-46 1v54h226v-55h-25l-21 -3q-8 -2 -14 -9t-14 -23l-15 -35l-163 -374l-4 -10l-5 -9q-29 -66 -68.5 -109.5t-122.5 -43.5q-56 0 -89 29t-33 79q0 37 20 60t53 23q28 0 45.5 -17.5t17.5 -44.5q0 -29 -17 -43q-15 -15 -48 -15
l3 -3l4 -4q9 -9 21 -12l27 -3q44 0 73.5 28.5t58.5 99.5l-163 384l-2 4q-15 35 -36 42q-19 8 -55 8l-1 56h271v-54h-43q-21 0 -30 -6q-9 -3 -9 -14l2 -12l6 -17l1 -4l2 -4l111 -259zM233 641q17 -17 17 -41q0 -23 -17 -40t-40 -17t-40 17t-17 40q0 24 17 41t40 17
q23 1 40 -17zM435 641q17 -17 17 -41q0 -23 -17 -40t-40 -17t-40 17t-17 40q0 24 17 41t40 17q23 1 40 -17z" />
    <glyph glyph-name="c274" unicode="&#x102;" 
 />
    <glyph glyph-name="c275" unicode="&#x103;" 
 />
    <glyph glyph-name="c276" unicode="&#x104;" 
 />
    <glyph glyph-name="c277" unicode="&#x105;" 
 />
    <glyph glyph-name="Cacute" unicode="&#x106;" 
 />
    <glyph glyph-name="cacute" unicode="&#x107;" 
 />
    <glyph glyph-name="Ccaron" unicode="&#x10c;" 
 />
    <glyph glyph-name="ccaron" unicode="&#x10d;" 
 />
    <glyph glyph-name="c278" unicode="&#x10e;" 
 />
    <glyph glyph-name="c279" unicode="&#x10f;" 
 />
    <glyph glyph-name="c280" unicode="&#x110;" 
 />
    <glyph glyph-name="dcroat" unicode="&#x111;" 
 />
    <glyph glyph-name="c281" unicode="&#x118;" 
 />
    <glyph glyph-name="c282" unicode="&#x119;" 
 />
    <glyph glyph-name="c283" unicode="&#x11a;" 
 />
    <glyph glyph-name="c284" unicode="&#x11b;" 
 />
    <glyph glyph-name="Gbreve" unicode="&#x11e;" 
 />
    <glyph glyph-name="gbreve" unicode="&#x11f;" 
 />
    <glyph glyph-name="Idotaccent" unicode="&#x130;" 
 />
    <glyph glyph-name="dotlessi" unicode="&#x131;" horiz-adv-x="346" 
d="M227 116q0 -41 9 -52.5t47 -11.5l36 1v-53h-289v53h42q37 0 47 11t10 51v236q0 39 -9.5 50t-47.5 11l-42 1v54h197v-351z" />
    <glyph glyph-name="c285" unicode="&#x139;" 
 />
    <glyph glyph-name="c286" unicode="&#x13a;" 
 />
    <glyph glyph-name="c287" unicode="&#x13d;" 
 />
    <glyph glyph-name="c288" unicode="&#x13e;" 
 />
    <glyph glyph-name="c289" unicode="&#x13f;" 
 />
    <glyph glyph-name="c290" unicode="&#x140;" 
 />
    <glyph glyph-name="Lslash" unicode="&#x141;" horiz-adv-x="643" 
d="M33 174v61l110 80v236q0 35 -13 46.5t-53 11.5l-44 1v57h331v-57h-47q-38 0 -52 -11.5t-14 -48.5v-170l147 106v-60l-147 -107v-258h186q95 0 120 62q15 36 23 69.5t8 68.5v10l1 11l57 1v-283h-613v57h44q40 0 53 10.5t13 47.5v139z" />
    <glyph glyph-name="lslash" unicode="&#x142;" horiz-adv-x="340" 
d="M313 496v-54l-92 -69v-257q0 -41 9 -52.5t47 -11.5l36 1v-53h-283v53h36q37 0 47 11t10 51v202l-93 -69v53l93 69v181q0 39 -9.5 50t-47.5 11l-36 1v54h191v-240z" />
    <glyph glyph-name="c291" unicode="&#x143;" 
 />
    <glyph glyph-name="c292" unicode="&#x144;" 
 />
    <glyph glyph-name="c293" unicode="&#x147;" 
 />
    <glyph glyph-name="c294" unicode="&#x148;" 
 />
    <glyph glyph-name="c295" unicode="&#x150;" 
 />
    <glyph glyph-name="c296" unicode="&#x151;" 
 />
    <glyph glyph-name="OE" unicode="&#x152;" horiz-adv-x="1143" 
d="M641 372h97q45 0 63 24t18 90v16h61v-320h-61v15q0 24 -1.5 44t-9.5 41q-9 31 -72 31l-95 1v-255l207 3q111 0 140 60q15 33 23.5 71t8.5 86l60 1v-280h-504l-40 -3l-38 -5h-9l-8 -2l-48 -5l-48 -2q-153 0 -244 90t-91 248q0 159 93.5 258.5t246.5 99.5h23t25 -2
q21 0 49 -5l48 -5l49 -2l486 1v-246h-59q0 82 -28.5 133.5t-126.5 51.5l-215 1v-234zM533 524q0 48 -32.5 70.5t-100.5 22.5q-105 0 -167 -79t-62 -213q0 -126 60 -203.5t160 -77.5q40 0 70.5 9t48.5 26l4 4l3 4q9 12 12.5 29t3.5 58v350z" />
    <glyph glyph-name="oe" unicode="&#x153;" horiz-adv-x="934" 
d="M525 230q0 -66 36 -123.5t111 -57.5q60 0 96 30t54 93l65 1q-21 -89 -79 -139.5t-152 -50.5q-53 0 -99 21t-76 61q-37 -42 -84.5 -62t-103.5 -20q-108 0 -177.5 66.5t-69.5 173.5q0 118 66.5 188.5t178.5 70.5q54 0 104.5 -17t86.5 -61q27 38 73 57.5t102 19.5
q109 0 171.5 -59.5t62.5 -165.5v-2v-11l-1 -14zM190 370q-39 -54 -39 -145q0 -85 38 -134.5t104 -49.5q68 0 106 51.5t38 145.5q0 73 -31 130t-114 57q-63 2 -102 -55zM753 384q-30 42 -94 42q-55 0 -89 -37t-42 -104l256 1q0 55 -31 98z" />
    <glyph glyph-name="c297" unicode="&#x154;" 
 />
    <glyph glyph-name="c298" unicode="&#x155;" 
 />
    <glyph glyph-name="c299" unicode="&#x158;" 
 />
    <glyph glyph-name="c300" unicode="&#x159;" 
 />
    <glyph glyph-name="c301" unicode="&#x15a;" 
 />
    <glyph glyph-name="c302" unicode="&#x15b;" 
 />
    <glyph glyph-name="Scedilla" unicode="&#x15e;" 
 />
    <glyph glyph-name="scedilla" unicode="&#x15f;" 
 />
    <glyph glyph-name="Scaron" unicode="&#x160;" horiz-adv-x="663" 
d="M530 672h54v-248h-55q-16 90 -68 139t-151 49q-66 0 -112 -33.5t-46 -82.5q0 -39 28.5 -60t92.5 -30l18 -3l20 -2l39 -6l41 -6q85 -14 155 -51t70 -138q0 -94 -69 -155.5t-175 -61.5q-34 0 -60.5 3t-53.5 11q-49 13 -97 51l-13 10l-13 12l-25 -70h-54v266h61
q6 -65 26.5 -102t62.5 -67q30 -20 70 -34q17 -5 38 -8t41 -3q67 0 111 33t44 85q0 62 -58 81.5t-136 31.5l-17 2l-17 3q-87 12 -158 44t-71 134q0 97 66.5 156.5t175.5 59.5q51 0 91 -10q42 -9 80 -32l20 -13l21 -14zM400 868h65l-109 -145h-96l-101 145h89l71 -85z" />
    <glyph glyph-name="scaron" unicode="&#x161;" horiz-adv-x="506" 
d="M391 474h51v-172h-51q-18 58 -59 87q-39 30 -102 30q-41 0 -71 -18q-27 -18 -27 -46t33 -42q30 -11 81 -22l26 -6q18 -2 27 -5q33 -8 60 -18t55 -26q52 -29 52 -98q0 -74 -49.5 -114.5t-140.5 -40.5q-50 0 -91.5 15.5t-76.5 48.5l-15 -55h-49v187h55l4 -18l5 -13l9 -23
l11 -17l5 -6l6 -6q16 -18 44 -30.5t56 -18.5l14 -2h14q47 0 75.5 18.5t28.5 50.5q0 36 -35.5 50.5t-91.5 27.5l-19 4l-19 4q-65 12 -115.5 40t-50.5 101q0 75 53 106q58 35 116 35h7h7q47 0 86 -15q39 -13 67 -43zM321 668h65l-109 -145h-96l-101 145h89l71 -85z" />
    <glyph glyph-name="c303" unicode="&#x162;" 
 />
    <glyph glyph-name="c304" unicode="&#x163;" 
 />
    <glyph glyph-name="c305" unicode="&#x164;" 
 />
    <glyph glyph-name="c306" unicode="&#x165;" 
 />
    <glyph glyph-name="c307" unicode="&#x16e;" 
 />
    <glyph glyph-name="c308" unicode="&#x16f;" 
 />
    <glyph glyph-name="c309" unicode="&#x170;" 
 />
    <glyph glyph-name="c310" unicode="&#x171;" 
 />
    <glyph glyph-name="Ydieresis" unicode="&#x178;" horiz-adv-x="696" 
d="M508 532l23 37q6 12 6 19q0 10 -8.5 16t-27.5 6l-62 1v56h267v-57h-30q-27 0 -42.5 -18t-28.5 -39l-3 -4l-2 -3l-183 -277v-153q0 -37 12.5 -48.5t52.5 -11.5l55 1v-57h-347v57h52q41 0 54 10.5t13 47.5v148l-214 298l-17 20l-15 14q-14 12 -29 12l-43 2l-1 58h328v-57
h-64q-18 0 -29 -6q-7 -3 -8 -16v-4l1 -3l4 -9l9 -13l154 -216zM307 834q17 -17 17 -41q0 -23 -17 -40t-40 -17t-40 17t-17 40q0 24 17 41t40 17q23 1 40 -17zM509 834q17 -17 17 -41q0 -23 -17 -40t-40 -17t-40 17t-17 40q0 24 17 41t40 17q23 1 40 -17z" />
    <glyph glyph-name="c311" unicode="&#x179;" 
 />
    <glyph glyph-name="c312" unicode="&#x17a;" 
 />
    <glyph glyph-name="c313" unicode="&#x17b;" 
 />
    <glyph glyph-name="c314" unicode="&#x17c;" 
 />
    <glyph glyph-name="Zcaron" unicode="&#x17d;" 
 />
    <glyph glyph-name="zcaron" unicode="&#x17e;" 
 />
    <glyph glyph-name="florin" unicode="&#x192;" horiz-adv-x="567" 
d="M127 374l9 50h94l28 158q12 69 59 110t117 41q44 0 71 -20.5t27 -55.5q0 -27 -20 -49t-47 -22q-18 0 -31 11t-13 30q0 18 12 34t31 20l-13 6l-10 3l-6 1h-6q-27 0 -43 -16t-23 -54l-35 -197h114l-9 -50h-114l-62 -355q-12 -72 -58.5 -112t-117.5 -40q-44 0 -70.5 20.5
t-26.5 55.5q0 27 19.5 48.5t46.5 21.5q20 0 32 -11t12 -29q0 -19 -12.5 -34.5t-31.5 -19.5l14 -7l11 -3l5 -1h6q27 0 42 16t24 55l69 395h-94z" />
    <glyph glyph-name="degree" unicode="&#x1ac;" horiz-adv-x="413" 
d="M317 635q45 -45 45 -110q0 -62 -45 -108.5t-110 -46.5q-62 0 -109 45.5t-47 109.5t46 110t110 46q64 1 110 -46zM132 599q-31 -31 -31 -74q0 -44 31 -75t74 -31q44 0 75 31t31 75q0 43 -31 74t-75 31q-42 1 -74 -31z" />
    <glyph glyph-name="uni01AD" unicode="&#x1ad;" horiz-adv-x="600" 
d="M226 353q28 28 68 28q41 0 69.5 -27.5t28.5 -68.5q0 -39 -28.5 -67.5t-69.5 -28.5q-39 0 -67.5 28t-28.5 68t28 68z" />
    <glyph glyph-name="uni01AE" unicode="&#x1ae;" horiz-adv-x="567" 
d="M497 319v-90h-426v90h426z" />
    <glyph glyph-name="c431" unicode="&#x1af;" 
 />
    <glyph glyph-name="c315" unicode="&#x2ba;" horiz-adv-x="500" 
d="M123 517l49 147h88q13 0 21 -6q6 -3 7 -13l-3 -8l-9 -11l-107 -109h-46zM293 517l49 147h88q13 0 21 -6q6 -3 7 -13l-3 -8l-9 -11l-107 -109h-46z" />
    <glyph glyph-name="circumflex" unicode="&#x2c6;" horiz-adv-x="500" 
d="M428 650q0 -52 -27.5 -86.5t-67.5 -34.5q-20 0 -44 6l-44 13l-22 7l-22 6l-21 4l-22 2q-17 0 -23 -8.5t-9 -36.5l-54 1q0 55 24.5 87t68.5 32q21 0 44 -6l44 -11l44 -13q14 -3 21 -4t23 -1t26 11t10 31z" />
    <glyph glyph-name="caron" unicode="&#x2c7;" horiz-adv-x="500" 
d="M338 668h65l-109 -145h-96l-101 145h89l71 -85z" />
    <glyph glyph-name="house" unicode="&#x2c9;" horiz-adv-x="500" 
d="M66 621h367v-68h-367v68z" />
    <glyph glyph-name="breve" unicode="&#x2d8;" horiz-adv-x="500" 
d="M398 629q0 -48 -41 -77.5t-108 -29.5t-104.5 26.5t-42.5 79.5l75 1q6 -18 24 -27t49 -9q21 0 29.5 1t22.5 8t21 26z" />
    <glyph glyph-name="dotaccent" unicode="&#x2d9;" horiz-adv-x="500" 
d="M290 641q17 -17 17 -41q0 -23 -17 -40t-40 -17t-40 17t-17 40q0 24 17 41t40 17q23 1 40 -17z" />
    <glyph glyph-name="ring" unicode="&#x2da;" horiz-adv-x="500" 
d="M320 669q29 -27 29 -69q0 -41 -29 -70q-27 -29 -69 -29q-41 0 -70 29t-29 70t29 69.5t70 28.5q40 1 69 -29zM213 638q-16 -16 -16 -38q0 -23 16 -39t38 -16q23 0 39 16t16 39q0 22 -16 38t-39 16q-21 1 -38 -16z" />
    <glyph glyph-name="ogonek" unicode="&#x2db;" horiz-adv-x="500" 
d="M500 0l-17 -15l-11 -13l-4 -10l-1 -10q0 -18 14 -28t37 -10h1h6l10 1v-66l-10 -1l-8 -1h-6h-7q-46 0 -71.5 19t-25.5 53q0 28 15 49q14 17 46 32h32z" />
    <glyph glyph-name="tilde" unicode="&#x2dc;" horiz-adv-x="500" 
d="M162 523h-65l109 145h96l101 -145h-88l-72 84z" />
    <glyph glyph-name="c317" unicode="&#x393;" 
 />
    <glyph glyph-name="c318" unicode="&#x398;" 
 />
    <glyph glyph-name="summation" unicode="&#x3a3;" 
 />
    <glyph glyph-name="c320" unicode="&#x3a6;" 
 />
    <glyph glyph-name="Omega" unicode="&#x3a9;" 
 />
    <glyph glyph-name="c322" unicode="&#x3b1;" 
 />
    <glyph glyph-name="c323" unicode="&#x3b4;" 
 />
    <glyph glyph-name="c324" unicode="&#x3b5;" 
 />
    <glyph glyph-name="pi" unicode="&#x3c0;" 
 />
    <glyph glyph-name="c326" unicode="&#x3c3;" 
 />
    <glyph glyph-name="c327" unicode="&#x3c4;" 
 />
    <glyph glyph-name="c328" unicode="&#x3c6;" 
 />
    <glyph glyph-name="endash" unicode="&#x2013;" horiz-adv-x="567" 
d="M497 319v-90h-426v90h426z" />
    <glyph glyph-name="emdash" unicode="&#x2014;" horiz-adv-x="721" 
d="M711 319v-90h-701v90h701z" />
    <glyph glyph-name="c329" unicode="&#x2017;" 
 />
    <glyph glyph-name="quoteleft" unicode="&#x2018;" horiz-adv-x="266" 
d="M194 646q-37 -8 -60 -32q-10 -12 -17 -27.5t-7 -32.5l6 5l5 3l13 5l16 2q24 0 40 -16.5t16 -42.5q0 -30 -19 -49t-49 -19q-35 0 -57 29t-22 74q0 63 40.5 96t94.5 48v-43z" />
    <glyph glyph-name="quoteright" unicode="&#x2019;" horiz-adv-x="267" 
d="M73 481q36 4 59.5 29.5t23.5 60.5l-6 -5l-5 -4l-13 -5l-16 -1q-24 0 -40 17t-16 41q0 30 19 49.5t50 19.5q35 0 57 -28.5t22 -74.5q0 -63 -39.5 -96t-95.5 -48v45z" />
    <glyph glyph-name="quotesinglbase" unicode="&#x201a;" 
 />
    <glyph glyph-name="quotedblleft" unicode="&#x201c;" horiz-adv-x="482" 
d="M194 646q-37 -8 -60 -32q-10 -12 -17 -27.5t-7 -32.5l6 5l5 3l13 5l16 2q24 0 40 -16.5t16 -42.5q0 -30 -19 -49t-49 -19q-35 0 -57 29t-22 74q0 63 40.5 96t94.5 48v-43zM410 646q-36 -7 -59 -32q-10 -12 -17 -27.5t-7 -32.5l6 5l5 3l13 5l16 2q24 0 40 -16.5t16 -42.5
q0 -30 -19 -49t-49 -19q-36 0 -57.5 28.5t-21.5 74.5q0 62 39.5 95.5t94.5 48.5v-43z" />
    <glyph glyph-name="quotedblright" unicode="&#x201d;" horiz-adv-x="483" 
d="M72 481q36 4 59.5 29.5t23.5 60.5l-6 -5l-5 -4l-13 -5l-16 -1q-24 0 -40 17t-16 41q0 30 19 49.5t50 19.5q35 0 57 -28.5t22 -74.5q0 -63 -39.5 -96t-95.5 -48v45zM288 481q38 5 60 29q11 12 17.5 27.5t6.5 33.5l-6 -5l-5 -4l-13 -5l-16 -1q-24 0 -40 17t-16 41
q0 30 19 49.5t49 19.5q36 0 58 -28.5t22 -74.5q0 -35 -18.5 -66.5t-49.5 -52.5l-5 -3l-5 -3l-9 -4l-10 -4l-17 -5l-22 -6v45z" />
    <glyph glyph-name="quotedblbase" unicode="&#x201e;" horiz-adv-x="483" 
d="M72 -91q35 6 59 31.5t24 59.5l-6 -5l-5 -4l-13 -4l-16 -2q-24 0 -40 16t-16 41q0 30 18.5 49.5t50.5 19.5q35 0 57 -28.5t22 -75.5q0 -61 -39 -94t-96 -48v44zM288 -91q38 6 60 31q11 12 17.5 27.5t6.5 32.5l-6 -5l-5 -4l-13 -4l-16 -2q-24 0 -40 16t-16 41
q0 30 18.5 49.5t49.5 19.5q36 0 58 -28.5t22 -75.5q0 -34 -18.5 -66t-49.5 -51l-5 -3l-5 -3l-9 -4l-10 -4l-17 -5l-22 -6v44z" />
    <glyph glyph-name="dagger" unicode="&#x2020;" horiz-adv-x="567" 
d="M239 402l-25 -10l-3 -1l-38 -16q-15 -6 -23 -6q-26 0 -47 18q-18 18 -18 48q0 29 17 47.5t45 18.5q13 0 27 -6l26 -12l2 -2l11 -5l8 -4l12 -4l16 -4l6 -1l6 -1q0 22 -6 43l-13 40l-3 7q-1 5 -2 6l-11 32l-4 35q0 27 16.5 42t45.5 15q28 0 44.5 -15.5t16.5 -41.5
q0 -19 -3.5 -35t-10.5 -29l-3 -8q-1 -5 -2 -6l-13 -40q-6 -20 -6 -45l14 3l14 5l12 5l14 6l33 13q1 1 11.5 3.5t15.5 3.5q27 0 44.5 -19t17.5 -47t-18 -47t-47 -19l-24 6l-35 15l-4 2l-26 10l-22 7l3 -102l6 -101v-18q0 -10 2 -16v-30q3 -15 4 -22l9 -54v-7l2 -7l10 -74
l5 -67q0 -39 -17 -62t-47 -23t-47 23t-17 62l1 28l5 36q13 95 25 216q0 35 3 81q7 108 7 137z" />
    <glyph glyph-name="daggerdbl" unicode="&#x2021;" horiz-adv-x="567" 
d="M239 402l-25 -10l-3 -1l-38 -16q-15 -6 -23 -6q-26 0 -47 18q-18 18 -18 48q0 29 17 47.5t45 18.5q13 0 27 -6l26 -12l2 -2l11 -5l8 -4l12 -4l16 -4l6 -1l6 -1q0 22 -6 43l-13 40l-3 7q-1 5 -2 6l-11 32l-4 35q0 27 16.5 42t45.5 15q28 0 44.5 -15.5t16.5 -41.5
q0 -19 -3.5 -35t-10.5 -29l-3 -8q-1 -5 -2 -6l-13 -40q-6 -20 -6 -45l14 3l14 5l12 5l14 6l33 13q1 1 11.5 3.5t15.5 3.5q27 0 44.5 -19t17.5 -47t-18 -47t-47 -19l-24 6l-35 15l-4 2l-26 10l-22 7l-1 -6v-5v-6v-5q0 -18 1 -27t6.5 -25.5t11 -30t17.5 -34.5l4 -9l2 -7
q0 -7 -7 -21l-14 -31l-15 -39q-6 -21 -6 -43v-11l1 -11l23 8l26 11l36 14l26 7q28 0 46.5 -18.5t18.5 -47.5q0 -30 -17 -48t-45 -18q-15 0 -29 5l-28 12l-4 2l-4 2l-25 11l-24 8q0 -23 6 -46l13 -39l3 -9l4 -10l8 -28l4 -30q0 -27 -15.5 -42.5t-45.5 -15.5q-28 0 -46 15
q-16 16 -16 43q0 19 4 34l10 32l3 7l3 6l13 39q6 20 6 44l-16 -5l-17 -5l-10 -5l-10 -4l-35 -15q-15 -6 -26 -6q-27 0 -44.5 18.5t-17.5 47.5q0 27 18.5 46.5t46.5 19.5q12 0 27 -7l35 -14l2 -2l25 -10l22 -7v6l1 5v5v6q0 23 -5.5 41t-7.5 23.5t-8 17.5l-15 31q-6 14 -6 21
l6 19l15 33l10 24l8 28l2 14l1 15v5v6l-1 5v6z" />
    <glyph glyph-name="bullet" unicode="&#x2022;" horiz-adv-x="600" 
d="M226 353q28 28 68 28q41 0 69.5 -27.5t28.5 -68.5q0 -39 -28.5 -67.5t-69.5 -28.5q-39 0 -67.5 28t-28.5 68t28 68z" />
    <glyph glyph-name="ellipsis" unicode="&#x2026;" horiz-adv-x="800" 
d="M180 94q19 -19 19 -47q0 -27 -19 -46t-47 -19q-27 0 -46.5 19t-19.5 46t19 46.5t47 19.5q27 1 47 -19zM446 94q20 -18 20 -47q0 -27 -19 -46t-47 -19q-27 0 -46.5 19t-19.5 46t19 46.5t47 19.5q27 1 46 -19zM713 94q20 -18 20 -47q0 -27 -19 -46t-47 -19q-27 0 -46.5 19
t-19.5 46t19 46.5t47 19.5q27 1 46 -19z" />
    <glyph glyph-name="perthousand" unicode="&#x2030;" horiz-adv-x="1059" 
d="M638 288q33 -45 33 -125l-1 -18l-1 -17q-5 -52 -32.5 -95t-87.5 -43q-57 0 -91 44q-32 46 -32 127q0 82 33 127.5t90 45.5q55 1 89 -46zM505 266q-13 -29 -13 -90q0 -82 12.5 -115t44.5 -33q31 0 45 30.5t14 97.5q0 75 -14 106q-12 32 -45 32q-29 1 -44 -28zM980 287
q33 -45 33 -127t-32 -126t-91 -44q-56 0 -91 45q-32 46 -32 127q0 82 33 127t90 45q57 1 90 -47zM845 266q-13 -29 -13 -90q0 -82 13.5 -115t44.5 -33q30 0 44.5 30.5t14.5 97.5q0 75 -14 106q-12 32 -45 32q-30 2 -45 -28zM601 661l-403 -661h-55l398 661h60zM258 630
q33 -45 33 -126l-1 -18l-1 -17q-6 -51 -33.5 -95t-86.5 -44q-56 0 -91 45q-32 46 -32 128t33 127.5t90 45.5q55 1 89 -46zM125 608q-13 -29 -13 -91q0 -82 12.5 -114.5t44.5 -32.5q29 0 43.5 30.5t14.5 97.5q0 75 -13 105q-12 32 -45 32q-29 1 -44 -27z" />
    <glyph glyph-name="guilsinglleft" unicode="&#x2039;" horiz-adv-x="239" 
d="M192 439l-39 -102q-1 -3 -7 -27.5t-6 -36.5q0 -18 4 -37l12 -39l8 -22q4 -14 8 -21l10 -23l9 -21l-58 1q-33 50 -62 101q-24 47 -24 61q0 15 9 36t24 45l6 12l8 12l21 33l18 27z" />
    <glyph glyph-name="guilsinglright" unicode="&#x203a;" horiz-adv-x="239" 
d="M47 111q26 58 39.5 101t13.5 63q0 8 -1 17t-3 17.5t-5 20t-7 20.5l-8 18l-6 19l-12 27l-9 24l57 1q35 -54 61 -103q23 -45 25 -61q0 -16 -10 -37l-22 -43l-8 -14l-8 -13l-21 -32l-17 -26z" />
    <glyph glyph-name="c330" unicode="&#x203c;" 
 />
    <glyph glyph-name="c331" unicode="&#x207f;" 
 />
    <glyph glyph-name="franc" unicode="&#x20a3;" 
 />
    <glyph glyph-name="c332" unicode="&#x20a7;" 
 />
    <glyph glyph-name="trademark" unicode="&#x2122;" horiz-adv-x="993" 
d="M3 519v148h384v-148h-42q0 68 -23.5 87t-88.5 19v-270q0 -18 6 -26q7 -5 31 -5l34 1v-38h-217v38h34q23 0 30 4q7 7 7 25v272h-28q-61 0 -74 -31q-11 -31 -11 -77zM811 667h165v-38h-26q-24 0 -31 -7q-7 -5 -7 -24v-243q0 -19 7 -26q7 -5 31 -5l26 1v-38h-201v38h27
q25 0 31 5.5t6 23.5v252l-140 -319h-36l-143 319v-251q0 -18 6 -26q7 -5 31 -5l27 1v-38h-177v38h26q24 0 31 4q7 7 7 25v245q0 17 -6.5 23t-31.5 6l-26 1v38h168l118 -273z" />
    <glyph glyph-name="c333" unicode="&#x2190;" 
 />
    <glyph glyph-name="c334" unicode="&#x2191;" 
 />
    <glyph glyph-name="c335" unicode="&#x2192;" horiz-adv-x="500" 
 />
    <glyph glyph-name="c336" unicode="&#x2193;" 
 />
    <glyph glyph-name="c337" unicode="&#x2194;" 
 />
    <glyph glyph-name="c338" unicode="&#x2195;" 
 />
    <glyph glyph-name="c339" unicode="&#x21a8;" 
 />
    <glyph glyph-name="partialdiff" unicode="&#x2202;" 
 />
    <glyph glyph-name="Delta" unicode="&#x2206;" 
 />
    <glyph glyph-name="product" unicode="&#x220f;" 
 />
    <glyph glyph-name="c343" unicode="&#x2212;" 
 />
    <glyph glyph-name="fraction" unicode="&#x2215;" horiz-adv-x="87" 
d="M273 667l-405 -667h-55l401 667h59z" />
    <glyph glyph-name="periodcentered" unicode="&#x2219;" horiz-adv-x="567" 
d="M330 288q19 -19 19 -47q0 -27 -19.5 -46.5t-46.5 -19.5t-47 19q-19 21 -19 47q0 27 19 46.5t47 19.5q27 1 47 -19z" />
    <glyph glyph-name="radical" unicode="&#x221a;" 
 />
    <glyph glyph-name="infinity" unicode="&#x221e;" 
 />
    <glyph glyph-name="c346" unicode="&#x221f;" 
 />
    <glyph glyph-name="c347" unicode="&#x2229;" 
 />
    <glyph glyph-name="integral" unicode="&#x222b;" 
 />
    <glyph glyph-name="approxequal" unicode="&#x2248;" 
 />
    <glyph glyph-name="notequal" unicode="&#x2260;" 
 />
    <glyph glyph-name="c351" unicode="&#x2261;" 
 />
    <glyph glyph-name="lessequal" unicode="&#x2264;" 
 />
    <glyph glyph-name="greaterequal" unicode="&#x2265;" 
 />
    <glyph glyph-name="c354" unicode="&#x2302;" 
 />
    <glyph glyph-name="c355" unicode="&#x2310;" 
 />
    <glyph glyph-name="c356" unicode="&#x2320;" 
 />
    <glyph glyph-name="c357" unicode="&#x2321;" 
 />
    <glyph glyph-name="c358" unicode="&#x2500;" 
 />
    <glyph glyph-name="c359" unicode="&#x2502;" 
 />
    <glyph glyph-name="c360" unicode="&#x250c;" 
 />
    <glyph glyph-name="c361" unicode="&#x2510;" 
 />
    <glyph glyph-name="c362" unicode="&#x2514;" 
 />
    <glyph glyph-name="c363" unicode="&#x2518;" 
 />
    <glyph glyph-name="c364" unicode="&#x251c;" 
 />
    <glyph glyph-name="c365" unicode="&#x2524;" 
 />
    <glyph glyph-name="c366" unicode="&#x252c;" 
 />
    <glyph glyph-name="c367" unicode="&#x2534;" 
 />
    <glyph glyph-name="c368" unicode="&#x253c;" 
 />
    <glyph glyph-name="c369" unicode="&#x2550;" 
 />
    <glyph glyph-name="c370" unicode="&#x2551;" 
 />
    <glyph glyph-name="c371" unicode="&#x2552;" 
 />
    <glyph glyph-name="c372" unicode="&#x2553;" 
 />
    <glyph glyph-name="c373" unicode="&#x2554;" 
 />
    <glyph glyph-name="c374" unicode="&#x2555;" 
 />
    <glyph glyph-name="c375" unicode="&#x2556;" 
 />
    <glyph glyph-name="c376" unicode="&#x2557;" 
 />
    <glyph glyph-name="c377" unicode="&#x2558;" 
 />
    <glyph glyph-name="c378" unicode="&#x2559;" 
 />
    <glyph glyph-name="c379" unicode="&#x255a;" 
 />
    <glyph glyph-name="c380" unicode="&#x255b;" 
 />
    <glyph glyph-name="c381" unicode="&#x255c;" 
 />
    <glyph glyph-name="c382" unicode="&#x255d;" 
 />
    <glyph glyph-name="c383" unicode="&#x255e;" 
 />
    <glyph glyph-name="c384" unicode="&#x255f;" 
 />
    <glyph glyph-name="c385" unicode="&#x2560;" 
 />
    <glyph glyph-name="c386" unicode="&#x2561;" 
 />
    <glyph glyph-name="c387" unicode="&#x2562;" 
 />
    <glyph glyph-name="c388" unicode="&#x2563;" 
 />
    <glyph glyph-name="c389" unicode="&#x2564;" 
 />
    <glyph glyph-name="c390" unicode="&#x2565;" 
 />
    <glyph glyph-name="c391" unicode="&#x2566;" 
 />
    <glyph glyph-name="c392" unicode="&#x2567;" 
 />
    <glyph glyph-name="c393" unicode="&#x2568;" 
 />
    <glyph glyph-name="c394" unicode="&#x2569;" 
 />
    <glyph glyph-name="c395" unicode="&#x256a;" 
 />
    <glyph glyph-name="c396" unicode="&#x256b;" 
 />
    <glyph glyph-name="c397" unicode="&#x256c;" 
 />
    <glyph glyph-name="c398" unicode="&#x2580;" 
 />
    <glyph glyph-name="c399" unicode="&#x2584;" 
 />
    <glyph glyph-name="c400" unicode="&#x2588;" 
 />
    <glyph glyph-name="c401" unicode="&#x258c;" 
 />
    <glyph glyph-name="c402" unicode="&#x2590;" 
 />
    <glyph glyph-name="c403" unicode="&#x2591;" 
 />
    <glyph glyph-name="c404" unicode="&#x2592;" 
 />
    <glyph glyph-name="c405" unicode="&#x2593;" 
 />
    <glyph glyph-name="c406" unicode="&#x25a0;" horiz-adv-x="500" 
 />
    <glyph glyph-name="c407" unicode="&#x25ac;" 
 />
    <glyph glyph-name="c408" unicode="&#x25b2;" 
 />
    <glyph glyph-name="c409" unicode="&#x25ba;" 
 />
    <glyph glyph-name="c410" unicode="&#x25bc;" 
 />
    <glyph glyph-name="c411" unicode="&#x25c4;" 
 />
    <glyph glyph-name="lozenge" unicode="&#x25ca;" 
 />
    <glyph glyph-name="c413" unicode="&#x25cb;" 
 />
    <glyph glyph-name="c414" unicode="&#x25d8;" 
 />
    <glyph glyph-name="c415" unicode="&#x25d9;" 
 />
    <glyph glyph-name="c416" unicode="&#x263a;" 
 />
    <glyph glyph-name="c417" unicode="&#x263b;" 
 />
    <glyph glyph-name="c418" unicode="&#x263c;" 
 />
    <glyph glyph-name="c419" unicode="&#x2640;" 
 />
    <glyph glyph-name="c420" unicode="&#x2642;" 
 />
    <glyph glyph-name="c421" unicode="&#x2660;" 
 />
    <glyph glyph-name="c422" unicode="&#x2663;" 
 />
    <glyph glyph-name="c423" unicode="&#x2665;" 
 />
    <glyph glyph-name="c424" unicode="&#x2666;" 
 />
    <glyph glyph-name="c425" unicode="&#x266a;" 
 />
    <glyph glyph-name="c426" unicode="&#x266b;" 
 />
    <glyph glyph-name="apple" unicode="&#xf000;" 
 />
    <glyph glyph-name="fi" unicode="&#xf001;" horiz-adv-x="657" 
d="M115 467v42q0 76 57.5 121.5t160.5 45.5q100 0 158 -26t58 -70q0 -25 -17.5 -41.5t-42.5 -16.5t-43 15q-16 16 -16 41v5l1 5l3 10l5 13q-8 4 -21.5 8.5t-35 9.5t-53.5 5q-83 0 -101 -48q-15 -48 -15 -120l325 1v-351q0 -41 9 -52.5t47 -11.5l37 1v-53h-276v53h28
q37 0 47 11t10 51v234q0 39 -9.5 50t-47.5 11l-170 1v-295q0 -41 9 -52.5t47 -11.5l43 1v-53h-290v53h36q37 0 47 11t10 51v296h-95v56h95z" />
    <glyph glyph-name="fl" unicode="&#xf002;" horiz-adv-x="657" 
d="M115 506q0 44 11.5 70t41 50t71.5 37t86 13q25 0 36 -2l33 -6l23 -7l25 -9l96 15v-551q0 -41 9 -52.5t47 -11.5l37 1v-53h-270v53h22q37 0 47 11t10 51v296h-227v-295q0 -41 9 -52.5t47 -11.5l43 1v-53h-290v53h36q37 0 47 11t10 51v296h-95v56h95v39zM440 467
q0 65 -15.5 116t-98.5 51q-82 0 -97.5 -50t-15.5 -118z" />
    </font>
</defs>
</svg>
